<mxfile host="app.diagrams.net" modified="2021-07-06T17:59:56.716Z" agent="5.0 (Windows)" etag="IOc7eUIOyDEsBh4RqHog" version="14.4.9" type="github">
  <diagram id="FcVAQtYqj76x5k9JBW5J" name="Page-1">
    <mxGraphModel dx="1422" dy="762" grid="1" gridSize="10" guides="1" tooltips="1" connect="1" arrows="1" fold="1" page="1" pageScale="1" pageWidth="827" pageHeight="1169" math="0" shadow="0">
      <root>
        <mxCell id="0" />
        <mxCell id="1" parent="0" />
        <mxCell id="2gXIRFAYudDOXdTb_TRb-1" value="" style="shape=image;verticalLabelPosition=bottom;labelBackgroundColor=#ffffff;verticalAlign=top;aspect=fixed;imageAspect=0;image=data:image/png,iVBORw0KGgoAAAANSUhEUgAAAUIAAAETCAIAAADMHZiZAAAAAXNSR0IArs4c6QAAAARnQU1BAACxjwv8YQUAAAAJcEhZcwAADsMAAA7DAcdvqGQAANd6SURBVHhe7L0FoCZXeTd+ZOz167Luu9GNE0FiQNAipUYL9Zba/2u/evtRSgVaoJTilBZSXAqBAAGSEPdkN77udl1eHTvn/H/PmffebMLKTbLEuM+dO+/I0cefM2fOcGMMSxnjzAimONOMwGFM4MjYLQMkoBNlWMwFkrmGudqmNrjFjWYNyScdFGMGmXFtnhcQaMbRfyBAEiqAiVCz0KF+eky7WnCN+yyRLMFdriRreUyJFPddJiQTol3OMwMZ4TSRRssmY5EASY3PlBc3GXdT5opECxdN49SbeXgWQRhiLQCIhSPNFA7tBZxn3GYB7KeNVjwFTSF7bouxesA6mQZlkS8TY0GlWDGm0pCbxDhj2KwMSHCaCEnMDDE2RmiUx6TkyAMeZ5yaExquDM9pgwJeWMCNQE9NpuaAIsJDYhKldU4EkF0BQQYiJNNWYAVLHWM4zoEayDDyPpMActnNckbKeATqMRMkkXSEVMpIF7cSw5SUPjV2Hp4tsGRqM0fbUkKaMvtI8mX3dIcbFUUxrIKRhjsi1S1fSIf5HLL2BDGGRQFpkY/4jlggA40yULxKYbCZTmPHgTmOamMHRkcO1KYmwlo9DhMFC8SkAv8GYSqgUV5QICS6bJIUmGJBLqiUKx3F8vJFy/zcoOFFLgOgLjUxZJnsrvE4CACZtyh85i0eiJX9o16DRvCEiZZhuSjiLndATK5aUfww03Giu4yB7zUPzw6ANocJGgC0gay1TWh7Z8WYmTrjLcfzqiFEtFwqL8z5RSvlpAmsGEPoSN6x4ehxvAfjjNu2XFmv6koBXmLI1aHbr7vywO7bertDT4z7XupJ2Gnf4XkhXJZGwrzQxDhVpN0c1+WcJ0nSbDbrjaCVrlq89vIV57zSzfW1tMFNiLDgkqU5IBQaLYYl5vCqn2l7B78AZKcgCV4/nCYQWSawyIJ5cCBEajbc+PUDez9byLVUHNgQah6eJSBtS4JGv9kR/WRXST5JsK2FlY6crE51LOiZikrD493nnvtLq9ee290N2kUcNIYYk6klqYWszoqfNJb34Ioh4gMbgwccFai4/tA93/rhdz90ymq1/iTXxNuKuWrOS+HRw+ArxRzNKshGZvuFBfCKIcoJ/SLUBW7itG+0efLDe8z2Uf3GX/vTwRVnG5YXJs+0R2hHckkIBkBQkOOZBMRX2OBgCeNRsA7SOqwWN+AylN18/eCue679+Lqlmz2xj6fQM/PwbAIErG05ITUG/IUTa5JJmMmswiKAoYRbbrGgwfh0svDhraXLX/nHi5as0RBT1iJ7ASGeGeFCaalVC+Qek4eOQ6oAZUXgyclDe279/v+wdPuaZXHF3ZeX43nZclQEa01/xN82bE41wuRnFKjj7cNjwRyTHRHA7TMMb2DqtNG6oOSS6TiYSnMbdrQWr3zVmef+Sr60ksa0gE2YZGkSSyCPBL+d95kBzZKU1IiAGJODhSAdpGYIikIZNu+5/rN67Lrz1kyw1nbXIVPdzjYPzzxwBD0U99hD0IvCMhySWEL+QDy7gUJNFaRe/0SY3zXSF3Recd5Lf1O4JePiDny+kNInVobtQDWsL0pxDIkx8TzuSgG3rDG89/6HbrlSptuXDOqOYMQ3B3M85kkqqVaPSXA5ak0So10ogWeYMeYon3NMdiSgMYdMT2JDR3EkpGJBwoVyChPNzl37u7zixSed9YsdC04i8ZEsNKEkskCGXfHMutUangNLhXGERks1Rb+Gt3Tiu42dj1y//b7PnL7wUJ/c7+hx5pD+nYdnETLBAxEgtnbU2g5TEacpYjMaY7F+svCbSU8tXvXo/p6LXvs3ueI66Qcacke5k0yMqShJMgzVDZJ7KA2MAN7DRcFqB3bf//CdX+mUdy3ubxT9lkxGAx7SMJbV9Jn9gRgbmZJNtk14RgG1/4TF+McByLN6E/4rNzxfay3dcXCgbk6/4Irfy/etUKQHE63CwPWAnwwrzxhYpxpiLEmhIxTWLmIrkEap/Tde/fed8t61vcPF5gRzjZbxvBg/i0AiCtkT5EFnT55oD+sMe0xDyySDmZAlKqf4yhtv1udd9qcLT32tcjoQLnOHeDrjRKTEDwTeWhzKakNsyDDuq0Z1bMujt/5vUW1es2ioO7fdT/d7KjzsqTKqhd2HDwA5DjRzUSua8Yxuc6zxhDYsC0KALA/dZo3u4r5Vi/Z44qbvfOv/MTaikqbLnUAWKfh8xgXFkhD8oLGDY8UFiKOE0TvuuTGevHNJ33jOHTM6Yq5LTJOln9+ejQ3ih/DW0dYBtgd2UIp8a0gf/Nrs0RMZV6fv0W1Jufv8Bae+ivGihNPLFQQV3EU+H6yxIefc2lYKk1zDURoxveRKNbY/dON/hyMbTl8ZSXOLB7UBBY/MyJtafYGqrOyTGNsToSHV7cpfwGC4SWlSBZOJVWcui7gX+quuvbu5YO3bzjz/7VIOuB4NWdP4NSj2TALRlJ4vaCFSUtqpw5rhyKH//c//e+G5u3qL+wJed0BPeG3wqazSnodnDbi1vsRQlpEyapCIQwcjLBYgoGK5kfqSOzeVf/5tH2KVk4zwYxVJz5F28JQ0AghuM0PwrBiT6nZiOtIen9jx4Df33v3Zkwca3bmDrjcGZ50kncy83TJ9kokxLqA1UCrgGQqwX+BguE55KiEIZJ2hTsk1auigJVfedr+z7txfX7P+54XTY4SkZ3fPsBjTIBxMsU6EbGmREwlr7b/7O/8ppm86a91+rva5NJvFNTERcB6eZSBhAR2s8Zt9Ugumkp4xMNK+ln4t8h45tLRj1a+eev7rFS/iVooQlp5tZpw1+9w4k0scCxoWiaiYaHr8vuu//o/nL5sccHbngnGWkJKnRDQoDXmnFmiNmsCosNFpZoRJt2Tskck59nR15hQwe/0Jp4DnUzKICk7sDC1yT3CFp8B70L9ruLBjYvDcV/xVoecljucgfnmmtRrUigKdeSxEC1pZhcPbb3v4+vdetj50w42ubCAJdxz4UhyuE8FsxzJ4wuksHO36E+A5lewJ1+eY7GhwwpORB22NoRL2oUJ2AwQ0UirtKZFLWTA0wUbTl5/84r8rD/bXo4bvVYxxHQ4xhiwSBWfEOMsuIIosIadap9HQbde+L9e89aTe0Q52CCxBT0DBuCJCOIi0NKNJoyhcxB5FRILTeAm2mcY8UzDHGk9owyiygNBqjQAFoQWnEXoX6OeFwvBEMhwv1d2vOeWCv0xZIeegZqg5oAhoP4JE06MFat1chB0dwIaeWP9nFp7QNdBUwx0TkRAx3Ova0B0/+PDy4s39zgOdCOWTGOTlHV6jEQfzUz+edbDWmKQxkx1sdBG/PFZ+Ist1U9q63+tc+runnPeORtrwfKT2ufER1AUurCqCOivGsOQqZo7LUtaEc5gwl6c8PLTxms+99lUXiqKsG1UHj0l6roXCSfrJDhHf4IcagaNsRI1u4f+nAAT6qhCb0CTUFBGKcqTKwY3lrm6lrGoWbtgx+OI3frJcORXo0aLFeIuzgtYu1wKODCm+bOY5CEiODFzy4w9oW42LDcmgOA6T5Iz2MwAqaYDRErFxmGx/+Cv7Nn30zBU7OsS4FzlMSyYS7ULlzLwAMw/PHnD4RCRWCIJYQnPx6WIO1rjucFMMg55tzcEHh1b+wtvfK0UvbtlZldk0BusHWvoR3+CXZibRHnYBhOVCRQ/cdf3Jy4IOb9pJIMNcOx40fCbDlJLG07ChavBfim2WHez1F/5mNZkF/JIepe5zRyb12A8Sl1crQWvHvdcykwJtGdY1JA+aMMtFeM5GJeiPcDuDwOPBYckeJ70oIduoUC25kFLHcVzdf2jzjxZ3NwJZs+Mh7TEt6gWI2Kbj/PasbVYUIbX0uJhcPHALNHyK6JZz4U9N5zdtNS+5/DcULyMt+AjqHtbDxnJEzqwY/NvREFCYbAFdcgwf3v9obXLTgv5iFMa4Bu1NTyLn4XAgYYBes8fkApEJhDzS8IJhgc/6e7wtj9wQ1/fRbSMNc2loHydENzvcb7Nhs2rVHh0fkMYlU2yz0UYUQzkKBpYJEAv0VzDviib1GEeyrfd+w1W7+krMgb5F9UgsE6od7DJP0ucQSASnUnMvcbzUhculPdFyc1v2y6UrX7l40SkO0f2oQGKcDU2RUmDCZQ5P4r3b7+6qTBaCUCdkfgWNeoL95uEwICkilNEh5CjblPI8ZhChiLCrHJdyY49suIY8WMKfb5ivkItGB61vPJPdgnWHjguks0ltW2LRuX0zNDE8NgxaAu5WYjc4RzRdfnjbxoM7vr96YZRn0w68f6SALEvkghhbqZ6HZx0ydUxEpSmBMvFFEsAxbopg24QOg3VnXfzrLMlzY3X3UYDEWNKYJU1GgiXhRrSq1bi6I3D2uqIeFOGYMZVqh+z4PDweZrBqvVNYVIiFfXYujY4ioUfXLBWbHvy+VnUuHI3Ql2bIGEWTOSF7SAx0twvIfo4LRHGrLwD0kIFDdDPppbLshrYgGcJubaLRG7/3n+sWR13esJdOIeai+QUQXtSGguh1c3dGHczDswo0epLS+4UgClEIat+fCEvbRosnXfgWNzdIY1qHD4X8GBAD4T6UMzYAaN0Y2a8au7pKUyqe4lzD35Zw0w0c9izLPMwASVVbekimgEWIKDCq4dIoh031lms5OXxwzyO4HseZ7UMiel/fyp290BbimZO5Aohh599QgRBdxzAv2xjzEB6ZtL75gWu6CwcXdNTddNRhLaEjtIyssW02WXUwzZOudx5OOFBQZH2sjEMiBn84KRya7CoveHnX4jOjVNs3j44FxEJagyGg0lEaCktH9j3o86GuYpOrmEUIpZAK6mJeiI8EVoatNbYnVjhJqoTxROjyoaUL+Y5t9zCTZE/qaeNAZTZS+DjSPBl5Ar2zt0dRDuqHNwXT6qiUFh+h5SASNTG0Y++2a9eubAl1kF7iIAWdomo00LYSYLXHPFWfdQDhheUJkAbxkWdibWpx70RzyYqTX8/yvbTiUjIzCnMUsNaYACIsBSyvao4c2NDfEbmq5mXKmsieDcnMw2EAzFjMZr/k8UBIcAR5AVJJsFPHTPaUw+rktrA16Qpa5mjmKQHSkXZEdqjZtpm2+zlAVhEEOMsHGRZG0zwOq9VZ1AjjsLrroZs6cgfK+X0Om2baPkewYktktJJM2bMGz8OzCsYg0oInzSWCXy9NVCry/Vv2ugNLL+9feFZifNDIDY5Dp0wlyzhOOPQ4M3FtuFXf1F1u0vNjQMZvVIjlvXmYBSsPhx0AP1aSLABVOHRZEjhVYUZGh7dDx9pZ77hFphgmlCQ4gyeFWBLETIABVB7sPI1+pHbsjPHA0eHErpEdtwxWJkv5ccZoskdWMWWgAeqZI/Li2g2eh2cLQAxDEyBz3MmlgoXCH251HZwaPOm0V3lB2RWOogdJEEY420clVibGwqEJnCCp3r9vU84foWeMGhqeiExv5MGAPClW+2kBO+qQbcAPPCMKkSlGho8EnJMki8iTk5MTux2IDYkQpbZPkSHGlM+OXMyK5ZMFqpV+EI1DiKHZ43rKpu+9+cvLu2ud3kTcrEmXgmVDayFSk2jyCY3GtQXaFjIPzypA9SKWNSYKaW2AlrPsrs3q7Evf5nUsAXPkQLJUHW4hjggkxlzBqZaIjUHdrVs39vQ2mZ4gb53oLLMXa+fF+McAGJE0JJyh1+6BJUVPk3xNg8AkoI5ICn4rqR00MJfW+Nkg+bA5kFnG7GcuQJTIbKt1y+k9NabgNVMJIfdqj9z3naj2wLL+6RyvmpiWDFDCGEtnTvPwwA8a8kyj3GCOebI+20ABqwNC0oobKV/68O5iadHlK898ObSvC/5JTV46xDJW9x4NrDWmtxza7LRz1yMdHQlsOzlcmsqBGGcGeV51PxFIouw2I4P4tTbONcY39nGO5Gk+F0fV4SSCcrT2kAhin9kidTvjY0dzANQIemWS3KYtTLFlh/rE8MP3b7xm9QqZlwdcE3nWG0skzbNTJuA6yCQauYigjzV8Hp49sMOdnKdSetPV/snG8vUX/HIiivCZSAZhinVq6Fn/Yar/x6AtwHFE79yB4tNjewIncXGZZvxmb7y3/+nnxAIqpoZK7FHR4VyFA1gKev3P8iupFKtNEMFDx+CgnWYmSzsvDdvTAckIPVBx246jdVuz0eEnAlJnRTx1sPlnsJP9ojnZgdSqIFpxcyRJm1alYkevPM0ikwhAMHvhWECNpYQoHl6AQ68borOQX6JVYpLqvTd9e3F3tac4KlkVzj1uwalyPezpuZQ14I/rbbvpNNBNqMtAwTQQTSzK6EkmTqhW7DJk0o+GQnCAXkMtsZ1AkmyjNPgB5tuEewyIKFQgbmW2gZwDg/bZ52DEcgS4lW2z1WFHmojeq6e6cD27O5vSEncGl/QkQESSg1WoT1mD6ch2AfVkV8hPpUbaO1k7qQ3Im9oy23kJOdbnsumo0vbhkwbkBUsreL62GQRAiKQl8JKUhaa465C3ZO0rKr2noKdGaR3bQQ2tLIaxHY7Kx4HtueCB78KCHHj07pOWdroqpWfNRIgIAo5qIQ2SzMiJA8hVCib0k8g1qsRSuwwd3D8El5ZnINoxE83UC1sI0h2a8YSW5p3QC+qSJZBu+3I0kmUYScEb6IsKmKI5axQFaJ9FeSaLtLJrLLiXp7cWZikNACmIukjq0nKWkHkzs5DgXADUF4l9PbONxeyaNGhdU/AW57gLakR9sh7X9rXiKbCrQnWpb5fUofej6OVuiqLnilrF04iHCm1UgsfEp/aQhcIoR+/YsknWDp3cs7PMHqZXLzjUsfLRzSZ940PykPHWbFMzgkKp0PQyXaRFee00L6AucVkDZ0gZAj8lFuVwCUjGdcgSyQB8ePRS5VOWUyxPqAYgfVY4kdDFRXgl7XDMbigBdbEEpfncDVB2AlyLnE47TALUuCiQhNxWFLmZKkEtHlgBkhO6LJQ5qssqfZJqcIJkkcNCh6fC0XatInRBxeh2ccL3mmgwWhuj+oAIjQbYXCSEaI1C7BMYWr4FjEFlEgPofCzdlkMlU8uJK/LU7IxGyCS4yt5AOB6glmwjsN033ElYLmEeGk+6EcVojytftYTMD+6vd0aFFWvPvFzLQHKJDokACl8yxyc+oWcT7cJ+HAjxZIaxGR02JjxOMkJfSEAe4i9sGSlOKMCM8IJJlAQbOLFOEKc5CpzkdqpIJilPHZEqk8/n/EJAI3XAfsJa08qohNbERgkKpMsJDYsk2xqV1EAb3bRDt3UzSpt+GZGHjpJmyBOaqUYdmwX0D70DEmwHIRMkVfbOHIEqah8CMk4GjbBl9YBYAY8Fi7RuER1w+7HqoYqsoaFMc6oVrob1NkitUQ5blPW9omZtdPfWmxf1T5f4eHv2rW0bLA4k1g6SIxfF0LOAWtvVUjntBhsIkvCbyiFDIKSOGozWfJFgX3A2iZYtFug1MkzdMAX5wGXoGCGXtjZKtczmD1INKNg6AyiDFimDJY8T6dFLdVEagrBWISbWbNBAIKwI+oeW0xqr6B1xPelrSV8qwW2qP7Okgj67AwYAg5CEEj5hcvzecErEaZEZn+YegqFJl9N4AKWkZQazNkG+qUBqGLUZpkIx2RIcmoHsPodeoJnMMCgRvZNKagWinmOktmwZx4PH5MZigFrASPUTkrKL0IiQUFmaanYOT+eXrDnXL3cjk93wZ7tPzE1ttAUdGey9rFtGVWsTrkcztgiLtpKfGFANkLs40AmMBa3xt0ilKxqN5S2xNvSX1tNKkO9g4xMsqYNrQRqXewU3cGPjRBosxtIiT0sy9YT1fixFCceWHS2ImOVpgcgkJqxBp2vPSbmjOS0u91jfSAYgX8Ti1KYMhScQgExYXa7CVs2y59MqH4IFIUPzjUgZvD/oM5yo0GOt3ZvuYPGDldLunO9qsqLtLMcBJLPflGACtho6xeOmL2z2O3yAqzwpHT9umdA4qbLfENDMQ3+oXnhIMsZeyVhBMun11zxtcDloWFVRsKe1hPthsWu9JtQF5RCCVFzqsGlft/G49iDbdiTWiakNmjup4ya0dA3NEYYGohfdXciVZ+B2ROgy2kWrVShQNOemHiwmbLF1Eqw7UZNf/Exyx81CwctA1bgIbwTEhdJPfZEtzY0uCHJp4HygqTajXRnSSZE2SPELBQFxhR4IafxXkscHr47rvKTZb3OAjNbYiCuh0QQ3MOQhnCggTKaCMCNSeKU8v2j3EDo/uPKks2nGJClfZLNuQ/a6Cx2j07h4ZCAxplCC1Kau16eDHHpB76rayjM4auanDCBvyBtpkMLngYAar2v3o+ZDH9339j/a8rO/s+dd/za8aUua1oXwfJrU6HbGqsfEXWlNem7BFR6hnVAMqbCdJJIwRM1MVsHUwAAUpwITMBdBo0Ro6HdN1rsTuVzpbq2L2nhkLokXUT0cN/AWEZKcD1K5VrWdMICtQjtVKyR9NIvTx8NcMWzFGAyhNU8gVzSqAN9cSNGa2rrxa4t7DxX8g1xH1ozMoUzL2yRkMINk91BusHdP+vu/O/SFLzRTUwEqEs68CsQ1gVD5YcGPegSsHHmkJJI+HESafRJzaGODGM5RAoIN8c1Ma0quObxlXWCqTD4z6tRAQgvq1HeYE3REcXfCFhnWZSmR8RwYNpXgePI5ZMpdWG3JeI7CF2vTSW1QE7jKQQcAt2Bd68jbTwBK0LV8452N+7cldeOEPm9ByRF1UTJpQPraWUYG7LGhQAkXhLrPFZxRq9BiumV9N/TUwUX0F0KXANUGCol4ay6Q1QAOgCZCU6kq+5TCKnZ4ji66GsvcgUZ551DurBe9Kcj3K2XXoUDFmdtDvE6RAVV49EqJZbMXYtCJZquay/mk7A/PcPTMTxnAM9Kh8RmaX+QU924L/+XDe778g3rXMufkk93bbgo/9fHa6MGmaURTUfHv3jvxx387NNYoOp29aUOltQRqFR6dcRupkyKqojCNkEVdR9EgGHw/VhQ0vmR4FPoP3Fv7g/87/rf/tC3lPvEZ1HTm9xFVbQfxQxEyIsIC7UnznRiwfhQCNxPFDbAwOVaPyZfFLO1wCTUev1Iy57bpkDwyIjzVtOBSfON3vtgVbOvOD4kUcTDn9v3T40NG2axy4hn8+3HUsWlbPDrOo9jTgfDKrFonfAjtu0nOpY/g2Am+xPGcpBWFwJaC1XiknFYqFcgBrxRahsyydZAMGWVKR46pL1lRpimD4O/cPP0P7xn++3/ZXotzsIxwcAnx5Eu2F0TRXMVOGgeoRpGmJdcZypbMKClbS3AJEcaBRTQRFGIS9A8NsXpUlH53S/EmCgrgDSAJ8jsU7jIvESRCqAusji7ZcVNUiR+fomcKv6GfgF70ABG2tF0hzOtMyq3+OwZQr7MDlEAdolCbcGybSjMMyOJK0DOS3Xdvbq1Y/zPdKy8ENzsiRyYpy0957WQE/LSLOjIQvSm4QjNhMVp1D9GEnQ00A1R1Vt6JBM3clMsQmpZHSfEHGydu3MF/6Y9X/sXfLXrXn3R89RNdb3mVdEpxMliuGX9K+HtbTs3tmG5MsmJO5CtKBmk+bAas7uSrnl/14JDkYGbp258oWHgh91tGNoB32aF5n1Po2zshQunETqKdJnwBS28iIVFeg8glprHlhHGtP3Pi+guVqFMJA0VvJtAk96eLUeI+zzAfXG0Dxnj/o3eM7b1tzeJGgU94JFDxzGqdc4DHsQYkBIbOQ6EcYasLJ1nU654I8g1TjE0ZNWt3MvZbsQuXrcJUBYYtlqzpwrrkDPdSx8TSjVjQEkECu0Vle0yI2IuVXzUS/oibqqCR+LHKSafs5noOTbIGKzQdN3agmOyQWOax0uM6CJvX9FkzaMIZQGkQhETKyJFwwEjSEV9BqaRlExdNktMp6Aj9Idl00ldkJeiFyaTCc0XRHUMTSHjT0O45lnbHrKfuFGnpRxJjBPf52JRikYtEEMti6gbKE7gL35cG0oSrRE6xolFlbnJahuRrPBmAhjEw6BCxtjjaizSrA2FJft9kUXaedepFbzKmzGUH2kNeIYA0BTaKz0mbHJNh5Lve9S5Gk7HJM7nv9u8u7Y/Lzk7XhJSL1Bt+yYuzbH/iAOUliIoU9xBaebdvbD68S7zk8sopq+NcuLu3I126TJY6g4Mj6X98mt22Ve+cNJNj7oMPNnRedw/ylsnf9bD/lav1dbfKux8Ab7m9fWWXx64JxkcqV349YbmOjXeKG3+od+4IWtXOb149ffvOcCIU9V1i/9a4r7tcKQRGwWGkwbO2Fmu/dg9FazF+4iA13kjYl+ROWbjkDI5YC8wIrBJ+4UBQE6xZwI5wfRyApwdVgL0QrbSBQLYxMfTQHVcuquxe0jXmqTpN1kqVff7UznFMsLXbtiCftZ658Ync174zuuzU3EVnFXM8OjjCvnA197o7HrhfXnN1fPsGNQIh7u/O55hWtWaivnoDnzCL9MSCH3x3+rqbDJL1L1jsdnaqtOkrecs14tqbnd5l5SDnIbpUKf/uDeaB7XLpksEdm2pf/Rq7+9HwUDUY2c83PxwXy7K3q8BSOBM0XL5nt/u575qRJlu1sAKnw4icrK34wfen790pFvS6Ra+ybSf/8nfN9+8Ud2zk47H0Fq1MYeq1ck3X56860L2u4yXrC7lI3fKj8K4NvGehzBcRjvLmVPDN61ob96q1q2LH4XHU2UxW3nOfueqb6bV3iXt2cFPyKoMQ1yYTuWbSe8cm/ZUfsGvvkPdugDJWC5fCNSe3/tgIpruPpQCKyYuhC+AsqAYIM4wKz01Fnbsnli4/85d7B09uxVCeeaPt1FrQwwYVcFYZJ2+DaHR4kY+HzOwiFoYYI56E3UCeEyqxRwZUAWkBT/sBj9Ytdp2Wvu37B0cP5lPWA+2ohaciaFt/enRyutaajNWBkdGhkWq92WxG6mOfmHrvByZ/dGNt17ba1d9o/ut7mrfeV42kbCXe6Hjf17/e+NgnJj75qdpVX2vd/KOJyVF9cP9oLNVEmBzaNzm8V8X1choWufbp68xAgIBnhrgaRsxu5L2dUICIwiLFtJwskQEm7GkAVACEQSEupY9Nxzs33cmTRwa6RnweQxGBSziMzNFi8CMAOYrkldAGJ1ZrQSYOziPiXLiCU5Plz3+1/t5Pjnz888P3Pzp5613hP3649Z173DGRyh45UufX3G4+8ZWxv3v/nmuuazxwb/Str7Te9c6Ddz0wkbidwu3ZeG9y1ffCQ5M9kSlBfaWa3Xpn+IOb62PTUKMdowdb8Ngnmmrf3trBA2GjlUappxDXOHkmglaLX3V1+PX/jRE/h9Kr8UJ1ZN1XPxffskFw3n3NN5r/8L761bfW7t8/+b07pv7xo9P//Z2JUd3Z8nztpalHT0rRHcd0bNxQ+/6PGqNVmbhpIsBA6Y9unfjBbdWmCeAkRGnX17859O8fO3T9TVObdjS/9J3Jv3jfxI0P1pvGjZV7023jf//vE1/6/tSGLfX7NkzeckO1GdMaZnPBL2SQxJD0M04o3LOX8ePShcBv6GB4qse4Jy1Ycq7heUbzZi0FkZAMiQ3QETHY2QFHE+AMMjHmAsSnNU+BAEQoc7ELTw8QKcALdqSJck7cuvScjre9lG26KXzTax/50H+zHVMvq+vTnLCwqMv5wB+sfPlppRetrrznT9e9/0+dN11Q6Rjp6BhSf/nb+sZvnf+5f1v39Q+dP7lTf//7oh4t1E5f4vBDNfbwzui3/njpVdee/Y//evJrfmHxr/7OYL6XL1nH3vUPF/7BHy1dsdrhrCXhwkWepgeUrnXGCGmQsKclZEcCGt1EXx1gGJyMswznTwUokNPc8UzgKF87jbF9B7Z8f1HvWCU/ypMWjYVSouPR/HBopwQ94KijhbAycVuMaWBHMtU3Ocb2H4p/9w9Ofv+HLvrH956y4iT9je/unq4xHSa+31FvsZvvaa44tfm+/7jso5985Tt+b/kDjza++I1mU+Unaw34gxFTDW8o9kaNTHiaSzRL/LJ2Ok49femv/+7qVaeyU88r/tU/n/rHf1tYf54RwTiD+61SpeNlqzoWL/I3bGD7JyaU5yhpNu48tLvOzjyvVOkp7t4XnXup+8lPXPzxd5151YfPPbOfbbplSkynRZ137NyBBMzlxqGvah6vcxbSiHOU8AgdjASrouNuN0s7H7w//spVh864JPmX/+74xMfWfuF953p1+fH/SKZqC+t156Yf1HoYu+4zF377P8788gdW/MU7Orv6iu03x+cAVpJtnAttiRqxIWZIBfcKhybT1F+6f6LnpDN/pljuh0lzHHo5qS16nMaqrEDTzg7jYDsqWJaCVRQ0U99z/TimkYTHi3GmRU4ooHyKOuBn0CP7fBC+4x3L/v7POi8+x7/66rFfefvVX79qf41kbIwF45xVUzbp5Q8FpTRJxoKi+7t/csHp553yyKZte7fVeFzpKbN6JJraYR5Peezl2Kve1HPORSIo7i7ldprqxs5yHRgaXOC4/lShUNfJkHRqXES4SKoSmKVRTs8OUx8DV08RUKJSxnMD0Ii6nSH3qSEV9pymeCIcaMqkteu+6zr9PQMdTUfXmW7SUBN6gzTOXDUFKS47gkLOGzEDjRnZtqGxUGya6XxHhf3Cm9e8aH255OzrKdaW9eenhlmR9dQOcS/0Ckyc96KOd7zj/J6+vb6z6bKXrSz4bN9wMlEL/WIlMYh4TeqH3CVbD2KhyAi/uhXHB8qd026OSb/h5w+Vig2dpNB3QibatLjTcvLxW15dES123e0tFefdiH/1xnucXveck3zTnPq13xt4/VtfNhXrQ+Ph6CTLF1gjMSNTcUKzF2MagtAasa2kOe5l9AeRBtxVmlxiaDZRCGMHaeelu+5sxgk77cyXxWn39j0TysmfdVqxPqT2b5ko50pAy9i0uW/z0L7GeJhLcgPl4aFJK5FzAKCxLbttoDOTwsBGScEtrH1om+lY8tJFq86hQVelPU5D2S54kMImCC88d3raRkXQOYXY7YJ+DIjeCNjs92JEEOSTBK6UHaluZ7G8N3NywgClQt0InbDQ5Esmarn5sYtfnv7rP+f++DdzJy0rXPk/e2/bOhWXA+3wlsPqOTPJ6MlB5AtdDjcd3Pxf3578j8/G7/n38Xe9/96xFoPPnIgwZVNaJ37AFizSrtM08XS5GLu84UQpvOY0TLmGS9TkLHL8lD5ixK0XzVvZEwbSejSiOFcZmAtYmRUqMb6fwwFhE8R8qujUtAopWBSsEE4ObRndffPy/oaXTgk46hBDSf66Vk72nLSd5xhA3KFoUJgkFm1CFjLLlm+wywyy9hzW29mQrR0IlTuF058re6i/qnpKnaKZ9xK5oDeX9/aaZFvOGSv60+vWsKlaOlVrau3SKt4QKDAo90WaY0kefBbziMum5zWlatDDb21cWNvIcVMWQMvB41CKuSpNqxedvnBpJ/xwGU52TO+LbtlsVp7prekvmzCebpovfHXb+z/xyDs/uOUv33PPDQ+yRuAnhc6ISkygxxyjg1S5kfBD3z6hkjRKblyeTdcTwnUKcSMMW2mtzj710Q3/70+3/8279/7l+2+/7Y5JcEsuCkUc/uKv9C1cV/6zf9v17s9PX3krOxT1eDII5v4ggObp4Yd2ZCCw0RIPPFaVyWr/wbGuU859nWYBWusJ+qoaBVzcKI3gA92gSYfWllM5VlQpyRGBGgQNaA+kH+SSBPz91PlsjmCxCg5KtZmGIPEg0KCdqBUqU29+g/yVny0UPHnLxvpY3CNUwQeLIrpUnkxdnnQe2M4+998Tn//ivtUnp7/0tiW/+Isn53OkFkAb1/Np9AioIMbRHlRwlIokdRKEXPSRODhWOo1sClqdm3RXBsRsKb2EROMKJ9KtpkeARigNMc5DQbT1Yxu9R6XK0YBmsUGQha/qrXtv+O++8njFbTkQBpQEAQTd4H4hqE1pUKSd57iAhJTWjqOCxXSOzuzYJqymYDEcNSfXLBRSnjZkMuLTmDRDG1iLyagp4WTk68KHw4xT5bGU1jyHuknQDDfwgE0Tw0LSUxwELwnah1PoUJ9HkHJ6+APCRTnRdD0aZKQ67aRzVwjRXRl7w6vZwd3J3k2lDbfJpmBnvzTnmHE3zv/PJ4a/8vWdC/rrb/uZxb/95lUvO525UehE04iqmfaJ+cEykBm/GQbNkAb+gBs7/08j+qA5y1x7UZX5zCvk2WvftPpXf2flb/1a36++wf+nP1nwL389cPJqx5Ns7bLS3/1+71/9Rp9fm/78J/d8/APb41qRM3/OyM2IDR5wiRMyAnEW69KG+6sXvuzXS92rU7oRgWPpBX968xj6TGfzGSwRcSWxpD1WnSTGKQSKjrnv+PB0oZ9tfspms4LfTzykzE0MK5QMD1sqcpUc1M6CRlxItN/X3wOpdvwOJXuhnfOKVVrFXNqfNMtCVbY+Gj68Of2/vzfws29accY5Ey99aUcBjh0TCD4j2NqU5ySj5y46FZ4xTUR8blCQRc1yset6eZ5zOHQ+jexQM0iu2vhBp7MtO32KAB2AIklPZQc0QAmV4fi8KGnUEVfoSaBNm2HdHhLQtARqD10HSSPSzVREVhZIi3gHgbXkOtl41/cc/eDKBa0grbuWYCqlNb4gYOgu+RRzAVSd1Y5aUASt6kbPbsE+AS34Q14o/BS0Ik51qBpMNJgfGVYjlpMuK+SViBOVTkw1psOi9HuV6pua8A7sZmUvWDLYC3c2V0bQxHU9UEnRyArj5RYI7wauJ+vTVUfoggOjAwXbx5yFjl/myhEwmNJNWvCundQMv+7Vg8lEuOHu5LqbvY4udsH5PUFOTYwkt91pzjvXf/svnfaKlwSXvai8bpDW8i/LVIUJi/MpPWmGh2p4IRJl6BuWxmWtemJWBoMAuT4pV9bR2ZnLeUnMLrt0+eln1y97Wfz6i+Xl56YvXl+vlJuIBnJOcVmv/6ZLev7uD0+/7Mzyt6+abk6bNELRc+ASSmJfCrWHNLiNGEXyxAu2D6er1r9m5amvgrsA/7ddmORcGnSAnk6RG5dFXxn5jwNtMU51olTaU+mtT0XCKWoeGHqmS+YKWhSuQUrvFcyh6XMD0osp90w+iSqhs+CX/7/JT3xuauNDqx9+9IINm8/7zFf3IUJftdgNAtUsthb0lVsPVYe3VHbsLx9shGlnKZLOg3eIod2L9k2s+NSX7j0wDOdDS9FKjC7mYMARucWOY2pKJH4BNsCvJP0eH70/2bqjsmlfH4z8SFWwsp3Ca42YZWT7Lu7sgOJxAdlQNAJykgGrZSnUt5cppMEGjNmpyJ5BmFb0+03qKLj1Mk5p4iipaAotBNStLQIiDNfLDrMZ1mCsSt/1AEHh72NPM2VCsA9099CB+/Zs/dxJSydKYq+ra1wHLMmB5vD1FBhFxTQ5Yi69AKdATaoCj/sphHQQYlQ9dwLef4eCFyMi3plohca6aRnEMIGRTVNMEZHQBMXIRMYXbsSu+7r+8H/uuGPHwIOjSz/1zYM1xX7usqTsjphcdfn6Ba2Gue+7ZveO7vv2lN77+T0/uBeogXeSyhxzC7Irz/Zsndg8Vrz7gDNcBwKVcSIVwMWGCxPLoKOz0n/Bqe63fvTwnXtHfv51oosNx2ma+CXh833bxL6DXY8c7LluQ/5/fwDUpbGOVa5Qc8vwIIph6idxGE6fs2bB8HZ2722DD28qPTy69D1Xte54wFQa0kmawh1df17U38Pf//fXTR06ac/+JZsOrLhu45KvXFuf5myo1vjzd2686YHKA/vKOybUWMMU88wtClrmlKh+HABLwAWhxx4CTk4C/PIkF6fuwWZxn+paet4V3M2zlik4cH/g3tjJGhzGqCh5ALmjIInGLOm5MYkpGOTo8kfPjcEsgj78ZNLayK7NNy5b0hSmRqM9FDVRIvA2yiBDYvOcCIABEcLztDKxkXsO1W+5rXXVt/Zcc83Oa763PUnjn3l97pUv7wq8aZjYtOlteTC8+cZt9z8yVexI1q3rHh0J77l3/L67d1x7/YHxsbr0oFb5Ky4OOn1zcPvULbdUzz1PLl+h8oHQTQH1LjwxNeY89FB6970HN22tLlnCFy+VCoYE1svlNCJI+gp9JFMMOZxbN5GKlCDp2CzDY9kyrKMkeo7XZMGh4QULV74x39FjBRjCjjiNZthaB15AS9o8VDdxBzlf9LyAJpxmdpUeOmj7QNFRYe2Bu77YFTyysDwcmAnSsVbhaplk/oWguX+Q6Tk8NkMd1ER4+3kIaKZQpsbT71ydnH6qe855UOVq6GDtllsbF1xUXLoo9pMQDd/4gNm0O33Ny0sDpVZYbf3w3sSU+3JM/vC7e2+6Ze/mrdWXXuT8zOuK8Kh0GvZ0D+zd3dx479Qdtw/ddtdoakSuK/Vy6cXnOP3F0OFurcZuvVvdcveWRx4eW9AVL1/qcwoN6XOBBqyRpvl85/i4vPHuqldm7/it4mC55cGkuN3NsLFhU+OGm7bfe/feB+/d29WfQ8x72cVeVwFeRPHr39izfDk/9/TIdUVvZdGBQ40fXr9z86PDP/zRQZ0XiG47g+SNl/oerxUrBeH5994/ec13d9937/CNNx7ceN/BStk94wwfdNi+i135xd33PLD/RzcONabjX/7ZrhedU2bp9MwUjWMCaVaQGkS1w3s0AyzXMP3bRzu6l10xuOQi16kgcqCUSNa2vjilzVIm20BMy5HYjg6owoSs5RgXbJCMPPqFT/36615Zzeu9AZxSYjJy86CqcQCLZ+s8MYBiqXdogBtMJfltW9mBoXyS+AhfFy9Vq1cbIau+2+RKhtXy5kec0VHpleSylaOLF1cmJvSGe5VSA0y2VqyOhyenUlY670xT0NVGY/C+m8dXnRH3DiZFX8q6xx0DXTHZWHHLnY1E+JWOxinr4mK+UQxi8IkHFJBuhe4DspS2dnJOpoyE1MoYDdbZM7poL7RRTicI9MbSrk07zjn3lR8vL1gS0mBLAkeSpqLSh0mRRmbTNQi3lINcbioMKgWuAok8ojp6pxi2HSTYu+XWB+784FmrDnWoB0sypA/gIb4TiDIjEmO4AfRhdPpKEzXh2GCZQ6clpvLanWCS1l+sT3beeWd+cFFrzSlw1tXEcPGhHfklq2sLFtR81fIjf9Pevh2HipecUy+LkZER908+2vBWrP3915f2PDQUhnxwQXjqaXHOT12p01i5TqFelXffo1thwc/LNSebg1U22UhftLbRJ6dVmGua/jseEcM1Vgjq561LFnanvFVjvnXnyWqAR8q7DnTet0XJonrxBa0Cm8qnngq7a6p0z67pvUNxTgTLu/zubmfHWOOktc3eXMtn/Tfd3OpakJxxcks1QYGFu4f8B7fBNLNihfWt8qZqgaoPX7K27rnwQb1p07l5X3xgH7RhUYp4oHN43XK3qxioNJ1sqXsecsereS79xQPTZ56SD0zDk2DLBs3QOA7YVTtEAnVNk7YFg3dzYPrkTQe6Ln7znxe610peSdG69iOCdp6nBpkYN1yTkwlswMin3vvGV1022uXuC1REo902WqMpcmiPNconBlAs4j5YozwDchN02CloU+A8cB2WpBNS1lwPapkCc5VAXXbETe3lJJdVGqflPA67hO5AGX6xmuhGqrulnpZx1c93mFbIcshp0pZ24zxNW5RRortT2R3RezCNQi4Nm2MeJ9lFHEjeTzYDkKdPRozxb+UAzoqlAV3A/4wQE3A4n/7+Rt/B8UvPffn7gu7eWKIFyoVRo2f6kDRU59gX/UiUaZiNvDDPNokKgI8seIuWPqVhFRlNjd113fs6gw1Le3bl0p05tJrewHPQYjjsVDVFuNiDWsfvQ1v1kDX2jVOjET40XXXGieQIOGSLy9QkXcCdmwO3h9IxThXapD9K3Io4IDx1YLzwR/9eDRaWPvx7a8p8IkqYEkOOF9GXJu2rganmuTxLopxWXTGCnZ5kqtEQEiIymXNjPQ0NW4qdUlNrP5A5MGOr6SIQ8ZqIDZKEnqCIgDeigBcqjbjlmpqfmgDoUj6vdE80JmRQEKnMM1GrTbkdBZNO5fM8Gk39otMIk3xeOy0WQ4SCPJw+qXJ+odgAFuuTRdnqgH0Eah0T+wLxl0nKkpc919HRnqIneAjlmGhHx04xNV0JzfQ8UMmF5CiHTUnvMR4Hw/TKJzg1E2Mum64/mS7c8Mjak8789dXnvALuM6KgJHFpEbWMj54GkGBaikP5ww8vVLoXVZtwBeGaWRpTa20lT6+aHwewA80DTJjns0CmHqsHXtMx42nzgKOqMlUkWAlzfXglWrcmAy+ZHBtnFGMY3dIFt+GYQ645FE2PuaopwglHNem5W2OKm1CHKYuUKxweeMxOn2o2x6XYJ/WoSKeEagYOWVKyXugkDjN/9MkAyYD1lsiOogT6VCK5WkTcw+hrjNuICvnSAsSWOAUe7SsuWXVIR2gl2cvODHzpmEazbJAMS5yKFOEitBWn4Q+zb/s90fiGhZWqjA7l4EhA5KkbNn61JaAcyxOHteAYkKWi+DwEpbN8UjbpfXvZCHLaQcCvJyq5Rl40uEobzdTJu5xNFLxx4aSIQ1uNqoOIptg0jT28edAXkyUvkbFd/MkwL8cLHSZpGN+JXDFeylVZNBzouhsNqTAyLSNL0vNqRTna6YKIk0nSgm0ijESKSI+egTKxcUSLpUM5Pl3O5QLu8hDy1WTT+1ijWRItL5lWrYPFXEPGE26qWsNRPg98RKU8k3WyFm6Rmaiac2uOHmtN7ja1/T25eoebiDilFzpgMhUc7bSrlAZywjHDpXwqTMTTGtehEJGnp5LGLp8fBB4aU00BDqQ2Hg/DkCeIEQwRGRQa2aqlxf3Tnax46pozXsnSvFHE10BTZiOfJhD/SJKUjPLu4NK100CIgYmYbeqTZvHjA4XGAZOuiWgcgMaZhRRRS6gIXrXnep7kvEUvwwgFxhJcdpqU9fZ72XxDUoXILGLPbRUDQ28Wy8RD6AEBgWfk0QMPep5EMSVpYeQtVZh0wrzXyruKp00UizTUEBrjIuZ/Crhs5wCWSBHYEmas6Cxok2vFHW5xgQN1RU+8bOCaQfsXcjcr/PiHJLfHICCaOAcf0mNFw8aH9m1/6Lur+upFc7DghWTussopKiCgXDaDLWrOQEY4pkqJ85BbRWkITMYhLTWSKzj2C7q07k7g5OIwchzEtHWD+MPwzt78+rWFk5cWKj05lcRCN3UEh4aifukyVTdsCl12oJ24iZgbQfoKLi+6vECvHEFrkQcBbQ0LHNAbxlAAEKyEWJ/cFEen0FLUd6isHNJNxCb0GByuXA6E7ioL1oyBHVfSJERaAI3DbMOXYTrhxNJQA8ClEgG8PaJ0XMiZgHEn8eKmR1X45M7ADw3Q/wgiCmejRu8FoseoD2XA+saqo6QcPg7ElMtQK6GBcM7Q8KiABGg3NkuLRMipqG/v+KLzLnmLcfMKVUCyuQsmpc88PG0gXrYmwoqxcBevXD82JRUrkwdNbQWy6f0Bet/sBAIqhI3hUrj0jNA+TEm5Vp4jIc8GthQePrCcEgtJ7uIuPSOKUrQS4kevlEa0NAs9KaOQEYwbU4HACnLZPb1+rZVRTXhNkC9UqEMwfGzSmNNHFqhwGyZkBLEsbH/nDkhLkks4nNkMPdiFXqSQAerDsDANqq0SLwzQ2Dx6YSmbVWXBCv9jtaIQ9A0p7CFNjgZ4NECSNu+740sFuWNBZ903E5AtVEEpgAAqAVXaYuxFW2x2MAcgh8LO0rCbidI8vFt4okoHEJEmaEC48rQoSggWGNp2mrBvKn7yO7/U8cbLevTkIS8HOqIw48JgJyCIdOmD+MKFbAHhjstapLCJZC1ibmhb6wDYZockeUq2YlFL3bjtr2i49A53S6THkV5BvxfpeXUS0Uaj9pIn0Bop+BMUpofnELAI7gx4xrAICtDjnmda5M3gFJqFG6h7VzRRuUdVU/fBKpJFCOURz9tC7EVqHDwgl7nwCmYfEaIk8Ax4di7oJQpij9g0SHjP9n25pWte07dkDVosfcERVNnJ0m1Bf3pAVaG9aCh6ihYOLFkTq/4wKaf0CrZFMTpEziKdnTgw9gGWfdxiUhspgu2hP2ldFQdkI24GMSGCiBuNdLJhHhogQpOoMfRYEE1vWz/CBw050/vYdAWeCvFICnlFoZqex9mvgBua7JahlzpEAkA/xMpZQfZsLkBZbVV0gH/aQBEjYAwInVRORHMiOlpppauX3osh4tm82d7WZEt5rMqs1wDoe5IumDLIMEzfni231cduWbGw6rIRBGe4T7qs7UXTzjbFZrXXsqO5AnEA7bDRiEuM+A+eDE39QIuzJhIlmnUPp+1XBqkeaZKCGi+pMYf8H5CNlC30qYBvxWBwYfnQj4QaqFCSQyt4wgDTKDSnL1khE8pBs5EAFBA0nyuFr4VkuI42eK6KoeQRsNhmgIowMSLinh0DSxBdoiEJ+BbuKTmx0GYwwMAhzS9GAQn0Ezw96y5RgSSbqIE7tGiM7QJ1WgmBxiMjdW2mPeB/arfFq21RVgLxJrHW3AAFSBWLyoHRHq9w1kmnvzwFIkXCvYRUpq38CTOfnxpQQ4HLOI5TDd5gucqiStcpk9N5zfLWpSG9Sx8WsalPFBBnUvibKKh38ujRELAkyGHfFqT3jWhqGZJR/CkSWiRARoZmphAO6Ra9+p/xekYMaqii4aySMoW2MECAYSEQ50OEadEmQl0bZ8AhjnBOleJGtgfnWtI9WaBykZ2CWPj3GvYAtle5yhRjVTJOf//gCiQivQyfGX2iqttZCajajBRgOPiPSABvJCbug+OFXjSGNt971dpFjY5gyOFVar1lKQDajbKoHyifCrY9oK2d4BhAdVpFgD0B9rMblQBBAfd7CO8VXFhCD/k+2MFHpmXlrCAEKsyn8J5JFuizgEC4JVy2tU9BLJokZ/0G6rxLc0wyUmbthLq1pgklZiEONUsy5aRKgtCksu1dxNN15Sb0AWCisKU5+CdT2jYvzYunVe9IZ4PHYNs1mIoMBrnxSGl5rIkNJdil7VBIbGfjtvtOvYQDIWjCJhVLtAWGQQfQGCXgou35cQGl0eIerCF7dxzoW3nqa3LlTkI2sQraQLw4V1IdD9AtahppU8IkyBQMLjxvciJndAeH62GTKGv5TiyAiqgOPW3DzJGlLvQqCE8bSQjdQwus0GYJs8QkpaTR6ZSuZEI586YObbgMEsDDojlJ1g2bTTyzp2QoGRosm42YGYgnAdRA5KSmWplKFOyMHYouesHAvoNRR+8qx0eQwmn0lkYt20JIMmF/sMEyEf+02RDCQzJJbrPSWtV277jB15uXdE566UFBC+5Y7NFq8ZkYAg0JDXZT0ZZZSeDmDLYBjz+yMtHGDK6QPmnfbyciViaRsOdQuWBzmhWFFuECegKJpZe3IzsKaFuLu9mjbNwmyuLAlgmwgk3eGMq1VdBLs1adks2mQiz/0S2oiZRW9iNGRUZ6MxxF0bvyVrSQxJ62UwNwSg6xxRiEluQWd6kxKoUdt7KNWwCkQhHEJ5QZOiim+Xb2hLQMzfMhXNgeHR+9SGCFNYicvt2jQb77ggWLz6DHujRJxz4CojlztG6JFeenC4QsYEm68ENStDs2Ts/A+lT1RmGOC5qsTEnQ1ayvJxbQAbtB+Cyy2pepW7RR/4hPs63dEFxGazJjaxPjlLQxDtBG4B25Mpmnm3CWYGKRwsqP5UwCW0GmU7Fl5WYAQbI4mSPYfFm51BN41IjOBPmAjuKFRBWHxpLVa88Gg5NfnzaB5HZVxAmHcwMsFdm7dmuIaVxpHE/w6fGHd2/51rLBKT/Z53HwNDEiyke4ihABhdDZDBAGiLPnPJRBrbC6AwcZNggt2KCSSGZon5Wf3SXcUA+olgxvVAJ+0S/ICM3kzxLSOnW0zZySbske55GfaVPCrtlT3Ea5CJ8R+IAVaVE9Ym8qmVxwxFlWgCyOAbb7VhoBtnY7Zy7jAWxZhXQ1S0BNtmdZxuwikqDfj3n16C5S0qM/CqupAPL1UDv9UVNhCUjF4xZVnhVzTEA+P1HlydaC7Yfy6859Za7URybF0GxTO8OPKs7aSsU+PbAsS6Uh8oytW+2UyguKhcW1KhjCvoVL/ZhJeQKB9LmkRcxohWRsHj2RA95IHNpJANlpe0PXSfHa5zrIC7IQDxPHWxLiNrwjckctbgg7nJ4DQYwRgZPDS50xtHiTDbMtQQ4XggxIkucMqIJaljXUFg8nyTGQAKXdobGw2LGob/EaA/Kh3Q7kI7O6aEq7QTMAwYthk6kcYhdyDVGSiptbHr1esO2dpVEnmaIghyQGygAi4FgWbddLgNqpR2Qu7PlcYAaBGX0zCbGFkG5EK6g0MvDUsMyUcXJjqSpcRaasahLLtiKy2wyZcL99BfQKaK0/XELHuHLg+NoEtguoRwglIMkgDGqib24omGjoa7vUFtoEVqQGeZo2WuyLeotbCo473EZaqdyyUIA08O/tqUvL7hFScOojLSqzp7S1ZQg/wLYi6SUHg5S+bRR+yOlFenKygSUcEI6yXHMCESX+7n2lgWWX9i1ZiuKJG6kX0LKO9dzQiMdzwVMFSzxEYIjuTZKamMME5ypOafFYy0940LJ1wEGUKX38mk6OBUhw3DQEhArgi0SRnvDbXHZ0gnBqU9g9YXy2k/YYiTM0WkyS0NhBFboBpJO3xcNsnfcsBRQuCYQlmYV26W2Gf6yoDLL6ZhT5MQFto1VcyZMAU6NGsAbTIY2FQI/DzYyYt2+S9y87S7p5cHgcR5w7Kc0/sUDMAh5t8wwO7O9M96l0asjU0K49j1538lLfTcdFzs4NyYCYjgTM4uiJcFiP5gJIfhjVHod0ugkWtsbWyu5MK61faNO1r8z+Zk2j2JREl47tBkKTF92uiNoO4hEF7DXyt60kg7vJMEJ0cAtZaHEwi9oMQEnHUa7QriAJR04iO/ENFUWV0rRim5lSG0krJFF2pCS9T6VlnQOCbV3UP2qYbSrdQGoSV0o2k3L2hIg0ex1Ax22k4ND2BqdQi0TZUBcnk4XbDxQuuuJtwvGSJG37SFQRkqLyDGaLe+pg0UpjGSIQsshdOGoicJed/rIRtWSvKsblHK0OGOd4HRYvq9h2m7bHpAMNo8VN7XBIduXYgGxQgAL+Eq2Q3GCyQUsl0wI6tovWSaIBS3QQSR+3gXEhMxQUWWMASUKsiIyWnhrOCo0MtRPTxZg+tA/agFJWakh724WRiFTYkJaIMdMscqVgui3rtreMsjPbDJBfkBSY8pGWvnmAwon/OJ/itHabI8divrnWedJLfpkzzxXM9wLO844sSint+CoUEK1hSRQgIoCNHNsnHkbNVERNPd1sjdzw7U+eNRB3tA7mfDdqMJOjNtArqzpxTegYGxLPNsz2hfQ8Nnvh+EC4jpm0i1QDyA4iL/nGxOIzRUHN4yYRh1BLVG8nQL04AW4zoPPsICNTNtxgr4iESbusPICEB5li0rCzdx3QkSIOqpQcDmhEkDJFB6kvuAEMOwkXoWdadoohjYMSi/DUYU1saBChnrcEp+AFpYA3QH3qAF0PyYijH1mDgf3UTvCDxqXarQeHBtsWog1UtsUAXQeDOShTEYmzXs8CLTiBltHUO5RJb72YctJ0EpkfDRfduWfZpW/6IwiWhjWhQoFtqp3Ib8uFSLXjkKcHGbmpBygXVdgCee/g2qDrtG0HDMstjBV0omL0qrhNS6SmEQJqFkgKgtK3M5Abvmqs0eEnBVSz3YhZ7PbUwGYketmzI0BW+FMp/yh5SAAiI2L4dOR2ZcgBy3meNsWw2bn/UHDa2T/j+INQL7ZmNA06zpK8DVmf2zsUgHKwebmcJuKGD9/z1bzcPNipcm7CwyY9CuLZoHTGh4d7GW3IMIDtyQBqtjL8Y9CWscNgpsUEx6uIOtQ+JMhqOXJFVKhlJ4Atllw1e8XKMAC37A0oFHQ887BsLmxIQ6rZZrfHmZ4gjOPU1kinNCZNhqF9SuXhlMonnZRdt4rqCWCrsIqpfUatsHfsLVy3I3BgfMXoIblMnVwxqedHpis9S84fWHq6fUvJ8TxvtvB29h/D0VMG23wqzDYP5dsajAnOOvt1I8PFicmycsoiQFuhjawdzhJmG3Ed1BOCNAmHX2dLBrcLfN5uoCrNRZ3dKLim/WG2mTa4E15CD5WAEIoOIGQCpjDRMXMXTNYWRK2Vp5xyuTXTFsnHBiCesEtT6GGiETlWh/ePHbpx8YIRz68Z+vwShdb0MkU7wzw8ewCSkzdqnTYJBrDxLWwyLJ1RsakjrqupwalGae269b4HDwp6nKw+RRI/BieEoLMchgPS9jgiTtZud+9py5a/atN2uCz99dSYPG643AS2DzYhNmQibdQ+xw8YnQBK8Hm7QfGiF9TLJ27wSh47hTlIKDAgfDlpjqsA0p5ADiv+aDN3YLJ38fLXlotr6AMiSD0HUEalHLZdK3BD1Np9/43d/s7li8eTdF/KEHcAwZKeixF55uHZA+CfyE/0IE6wwSX9K4/T5+BMZHQSdO4YqXQtvHDRkpNg4WCNhXAFzUiZFbe2AM2JM+YAtlwqDC1CaI7G2VNyAwsvfunbtFi385AbB8XQ+jEkqdT2bNiQNvj2nCb0QyFZXwbXic8oHRVFiQCzp8e4nu2fcHDEZIDZ0+zgKSebPcj22QG5SYgj7AAS6Vrr6tLWTpSJsT1GbOEo10kdaehxCkKxhucfSnJTum/xupey2Oc0u//4xCKnBt4YPSomD21475bpfbctLE0F+pBESJn5OApJ5jT0MA8/WSB1D5rSmB+Egi5AaCKEvh5cKiXzVd29v9q79swruCxwnidfnmSdJqvOAvJn2wmBTIxtHEJlon30m3GqLC87/dw3j033T7QW1nVBCYSCId1OXZb47XVhtRAGNilFS6VyBPmWSJLFGDZEyRi+fYr9YdcfS2b3R0v2uOs4nTk4AclmDx6XDAkJ622MPLa1TyFzFEUwJxFO4knggb5gRFMdWkIOt/K7JuXKcy8u9w6wAMoPZc4ByNa7duzaJM3pnfd/e2HHUE/Q4i3moXhiF0sahYraOebh2YOMVdpH5IGCeTxmlEpMLjT9t26cPPmCN+Z7VnLm0bfEyDrab8VZoOSP354+gC1REoTzsEFFeiqZkgbRfHDV+X1LL92xvzNxVkVCafoGBxhd0kBpkmf0XVxauI6MlkGAODPS8IQtk4AfP37CdrRkTyHLE7Y5lmxP6dcK6uM2XLSDIu1TuCHwpXEQA2+wyAmCotR4sVq4aWe+Z8lFK08+h3lGm8cefR0bKAlUA30qVG99+Pth7e6BzklPh9J6N7hraIUsS6E5lDYPP2Eg4QUhILztmBL08XWieMz6dh8s5jvOW7P+ZZoHjLvw4sA4sNLZ9hMCcCbAijEgE2MWp6ahINsud4Oe5Se9WgQX3LPRaLeHPiPpmEhHvCBYTtLrPHAa7bNbaqW14uRxHGlDmidceSrb7KOuY29zTIbtx5IdWU6sBBHgbraBkolmBeRPdTNmfillS3bt7fPzLz/3gl9lXk9K3yQif8pmOz4goatFbWT/Q/d9bvXSqcAd4SqiWQcpVIaw87JI0Ofh2QfILj3ozhQ6DZzTZFShWjyYDPsPTQxe/uo/Yl7FPr7hruNmAgwpOZIYH5HbnjSQGNsJvTMmn7hOcRHT42uuWpHu6Dt1/blvlf5FGx8pTIT9dVOhiTFBVfMJ7djVEulBq82oWarJi6RXBrODbMPpjx0fLVn79GjJ7PHh17Nks7eOlqx9/QmnR0nW7s5hm1Y0y5LeYbYbzewElUosbtGgFO/vnqiWHthUiNVLX/nqf3a9tYqVGKeX0ZLEGuTjA7xqzZJ4w83fHuzc1Vc5lHOaNKWUSfokb/up9GMaZB6eNYClyjQ+zCyNZ9AqMvDMWkxEbv/WA/7yda/PdZwsyBQjSTs+zbbHyNfmK5RizcjTBlQFhpxgLCfog6BZK5uGDDJ4OuDG8zj0jY6mtt/6/ff6bMtAf9jTMZ6G+/OOQujHI8vZ5PDRgxIyuaRzbGPhaNu/rB7oKzs0T6ft69Yd+bFk9PeUkz3hOr1g8GSy4wQIyA6Qjg4IMiIQ5ew/zhE/pEogzPClUx4a4/tHe3J9V6w569eKfavrKZc+QozIRayLoFbap3THBAOTnjR2PXDrlnuuvODMR/10Ux56lab9wyvL27nNTWrYTDPn4dkCYgHLDjRzAurVeLDIkcOnRWGkuWr38LqLXvlXHV1rUpF9US4TUcs9bX5q81cbcIyrx2OP4wKJccrqYBdJj0ayQiN6R4JeW8mRW6+zyQZJXNt77+1fHT1w86KBib7O0YCP5qVyUi0Up0Eu6BWaQmLskk7WtqPxM6KCg7YYZ93Irs9IzuHJZq6f2GSHXac7M9ePnMxezKCtKRHb2GzaJqUToYTb5LnYlPcPqX3D/uDSV5z2orcVutfQu7r4g/lUKU2pz+ZpHVbkkcEk9ck9d37vw4P5R5d0b8jJCeAcNp/mEqoi+TuyRV8MRlMoKJuHZw1AA5rfC4FJaO1iOnd0ywkm5OK7t1fWrP/9lWtf7/tFpZWU8NPamTI2smeZGM/QEMfZ4dMjaibGMU1M1bDvtjgbh2XT4ZWyq6qStTJGqerE/ubktkfu+9bkobtPWh4MdMaumfZEKMkiIxe2lEa5bEttWZBbdGH29BjXD7977GSAJ6R/yslmDx47BertkJYFknO7QRrb8s21NthC03lgun/L3nqlf90Z57+1u/8s7nchhlUmkRyKzZHGJ62FzbNlHBNU2nzkru9N7Pzs2r7tvf5BZmoyRyvIkw5NoV4RFScxfDfwDGQ7yzMPzwaABvRZfM782BMxrHECMW64HVurSw5E6y997d85ziKuHRd2DcTPhigt2wHaXEBCbW9nkF09HoccG0iMURWgPRZj98R+KDczdXQOzSOimAce+DRmrDG65e4bf/il+sTm7s60kAsDT7uu1lppYmIqAYDfdnZ7gLaj2NnT7C7gCcmOeAp4OskAR7x+xGS274R2XIEltW0WWsGF4lJIpXUcx2ErbESdrHDuS6/4hf4VpzKxMDFOolmYVgseUqa+KdPnTXBo371p13R0aNTHv/fVj67o2dpf2DZYcOqNQ9oNDURZe9D6aAatU+/QG6qOfR+jnW0ennGAO5bKBITw43KQQFpbkOW67Pje3Y1X/vw/dCy4UIiyLxxu13JStMgIiN/mNXuQCfAMBbM7x2OP4wKJMRWbFZUdAWyFhwGEGv4kTei1iSD49C2D2uTI6MHdE+MjYatB77kLTov9zWRFgTjK9rOnswfHPp09+PFTwBGvP4Vkswc/dh2/j13HHioKoY4U9NTH9/zuru7O3sFK/wo7TRr+L71RgpTwR7JJvOS+zA4rU2GPgwzl2GcfTA3DcPvWh2649msdxTjnxSaJjIkF1CFwitz0oiU1A6yDqMR61vPwbAKsKayaQ2v9SaWSKFWRcpauPuOiS96gTM5xclK6Kk6l6xIXkBNHZMyyPibAGczeeXpAYtw+fPIALsQeJSBaRDyPgzRNXVqD7IUJs7hCxwFPuafI2w62Lepw0KhPVKcPOZLO4LEbrWjJH6oOGAbhs3qREoHOU6fXPJwYgEGDgEK7cqIRTZbWolTuKFe64KzBaQOl0kR5vn9iZHQO8LTEGHkBYD1AdgyQtNbbCxOUUtm02KfZU+SdPYBIo0y7EAatUI1LMzF49n84dZ5wOg/PEjxGBFAEG1gCylWmSUoem10RFZCxyjMDT9caI/usDGdsjYPs7gsJMlVFJtg6IDh+mtoqQx0oTd/yRfhMtLerDZCOJwkmIJF+guRmfPNj8MRkR4GjJXvC9TkmOxo8p5I94fockx0NZpPRIwvL6DDLdvgTVNPK2FAIiaxLZUBWOn4G4AQ41ZnWQTlZUWBxuvdChKxrh/f6qcEsrmYLyYiQIe5wgrxwcfn8hiPIjH1qCVC6vfYw6EgrqD8j8LTEOAOw9Sx/o7QXpFOdYWlWQz1NVTXrnB8GVGBWaEYQ7HBKiv7p0mceTiRk1Miok0H7CuQWQRH8p2ySgda0yIu99QzACRPjp8nZzwuYxdXT7Oys4nsMstMfJwUuP136zMMJBhBkhg+ynxkg/kCMaY81RUzwsO3JTxxOgBjPw9MHS4OMENhnsptxwBMOniG2mIdjACiBbQayw2xP0RZghk6QaHhTzwTJ5sX4OQHkkbWZAAcgfEaU7ODw03l49sGSCrSAlOIwI017umV2OkMn/CLAfCaoNi/GzwmYEeN5WjwPwJKKxNYKaJtkgs5IEduZPxlkg9jPBMyL8XMEQIVZQoAPjkiUjFHmkuyI158Az6lkz5s209QPu9nrdCE7opPHUmW3Hvv9ScO8GD83gIgwR0JkybCfHcWG1rdroc2ekrRnHPT4ZI9dB8w9WXYdcLRkj78+x8ac2GRPbPMck2XXAUdL9vjrtjEQ3NnXzPCTTavL9gSzB8jXTvUTh3kxfm7APBGeP2DF2Apw+9wePIGCOMVVSPIzAvNiPA/z8KQhk5lj2dpMjJ8pmBfjeZiH5z08U1Z/HuZhHn5iMC/G8zAPz3uYF+N5mIfnPcyL8TzMw/Me5sV4HubheQ/zYjwP8/C8h3kxnod5eN7DvBjPwzw872FejOdhHp73MC/G8zAPz3uwkzFNYieAZlO5Hz8TdObM0GzwIwOSzGU+5xyTPafguda1w74XkX1qJ6sX9dP6Z3Qvm6YPaP+8kCHD+exbCo/1GDfaJ4SiLAmfXf3/hQiZGFfpQ2r0kRLHHrTX+Gu//0yvYCGR4kdElD3IEArAAZjp8NOjJTv8+uxbYYCnn+zw63NszIlNdvj1E9s1ZoSVZGN4qlhCH7Knyy42/Aj7NWUcUMr2zwsZgJzUog4Ars36/hjuuDZc2+/egnWlYN7hDPwCAxJjY2I6IP7A9hgqaM+BJfzSF52EpkV47Z15eLbA4p8Wj1GaK01inFEts8ZGGtCLvtTD7LcLKPELF2B/FH1RW6GnEoJq5GErb0CmSYyRRhNChGDOYb7MCw1IjOFSE0rozF6ibmfSOyvOhCau7CcXn4OAZs+lYXNM9pyCJ7QZp5ZG2GcUszftYozkNIGSCac9HKtcJtsvYLAYaDIWWi8y4MybcSAtNqwFmvk4ZrZe5czdFxyQGEd0AIzA90hnNuAjW9cPrACeINWOpDM8BXTgINvPns7Cca9nMMfsz+Vks/Bkk2UHTyFZBtbS4tqMKBOTEuNGjLespwk3u/SCF2OLFvokIPVXHybDJLkZxqzPTbw862i+MIHEOKUukwXmJMm0WSyg39ig5+iT+cQ2EgmBFcplE2T7w08BT+r6iUqGVqGpJyrZEU8BT+r6iUr2hDaTl0gfPjcOx29GKACSkBgrwxP6pjk5kL69+oIG9B1bxpI4BHrAztyAj3GVPnuoYXusvsMVQlGW8AUIJMakvmf5BEDxFaGkfSXDAn4lcEQHdNxWcdlNcFD7zuz1DOacrH2SHRx2eqxks/ATSmavP9e6Bk0Kt9lGehrq1WYAIIn1oLCBiXH2gmbaGUDfocgoNCbmpK9Q03iBtUq0JqVDkaDJvEgg5XBEvtDAijEFxxYdh6tvywv0TV0GHY97OHPt4mZPBCTMeOnYMMdkzyl4znWNm5Rr+uim45hUOIJppbgQ9IFOagN9FRsHaM8cPo3+/Ad0FYqMBqMVc2ImYhxaoQ7s0D2UnZFko2iwIHNPsg/fvfC+T0RinCaxQ2xh6d7+PittUO1Qb4oBOym8at8E5GDPw7MH1tgalZChCZs8nwcnky/NeKJpSMfVNh4G9RAc/zSIMbjXYiDSLNK0h83NKZN3oNvaaRqSx1oLo/NStr9Hze3HMZ/Ox/Sea0BiHLFx6lr2bM0I6iCXMMEIL5R98maH7JlroP1fOD1/PoLQcB7pW19g3RRm2LFhDk8MD+1sEMeQzQGZ+E+DNSYpJhsTKZbgWBpPshzTLkU42WcdBEu0EbIF82tMW7OR4BO7E9hiXghAYtxkNdhbh/Hm9LQEBlTqwCJTZyXpeDjWkF7sOKKymfGEeXg2AC6iMIqbII29St8gjWhpLWGDeWxDIzCmh9gHGtnGgi9wmBHjmCyQdrhxjBI6pRPVbEGnyRyUmoT/As2n7RfhD3enX2jWuJUihEAva9+/+osuq5t0Ku9prhJONhjYcaHJyCsRzSxItpCFYLMwe3q060+Ap5b9uZxsFn6CtTg84rA8pjQ5nbvk1W+vdC3RsMggHkdEBCVrB7HB0JB3SPHhxbwQwRrdFIExV44D3IA30zCuDx8a3rR/18OtNFqx9oxlq84WTrexwowsh31Qmr54mB2/AIDEWEf4hUaf+syH//Sk5TLnHiz50w6DZU4EFJl2ERLDFoNBLFdlcDjbAR3Z4Pbs6VySzXIZDp6Q/ceT/fj1E54M+wyefrLsAICDp9aYIyeLBKszt5X2PvhI9Ja3vqvYfzZjOcQ+cK1Jhulpi338n03ZxPaCBmuN6ZPCQoNLWTg+smfrzdu3fzfVD/cOwilxDg45Sq08/bQ3Ll99gZMrO54Pg5ymqeu6LySPGkBibEJmokQE4596/6+94RX9TrLRUXs8XoPcghPIpYaM0+iKQ/xCXJWhgK7SRjyXQcY4s6c2Ie4fGbLEdmSRDApVZctM6TKdQn3ArsSPK/CIcKxaDoOnmewJ1+eY7GjwlJJF0q/JSiSX33BL/Q2/8IHC4IWJygmHwryMUpQYG3LhPEPwcwpmWwhAI8F9NF8yI3DGAEdqtY1m6S7dbye3h4KbUKuaqk5uuf/OrQ/9KHD2r12bFioHjRgHG6Wqd2qic/v2tJEsOeuin1116vlBUBGiwJinwGgSVVFp1BAqjX7B0DgE0PBDttFssAyEbQfuHN3VQY/aGenEJjtKyhMKJMYkSkCNmPjMf/zGpWerjvS+Eh9DkJGpeQC0Hc3EhKtG0tVGtx0gTWlPskcX7HVsx5O6Njgkw8R6yCGZzlHJNHuhRVcg2ArolsyptQX7GIA6M7wdG+aY7DkFj2+z4iLm+SZb9oPb0ze/7Yte/+l2gqyA0yTbyewPcuGf9s8xQOvI9bUtpDc5lEYcaxkIJ5a16J9+aMiO+oKwNsURfGCoKvIz4HEgP3hTN2vV2sEHprbfcnDPXa47vHSB6Sy1BBtzwELESCgDWHEUd0caPdsP9UVqYHDxOQMrXtzTt9bPd2kJHxOgaMIISSaqlWgMAhJoFyvGacb6lqWzFjuQE0Hq40jIxTXSSkiMDdklRTfPCBmsGFNvUPHEZz7865eeHXfF9xb5JA1Rc0bCi+ajL8AbiRy11G44tooq019ZGXNvMuVG0cCJzQekGI8OILECWLMFGnpMzYkec9QLL3ywDBXUOcTYvPFXvub1n5I64Gl6giAzJBFF7IGVheccEFktr+FIwAYQca1H59iRZNiNNnshgabphcZIkdCzEwf8KDlpK8ckzem9B3ZvOLjnXjW1tcJGeruj7u7Q4UMsnaJpMVQFyrAY4FoJE4t8Uy+cqgaj00E17s93n9a76Oylq84TTofwg4x1BRxzo6ExIM86Za6EEBIyBYk2kIxUVLnl20zI7TVAG+EW2mKMG9QAqxoOv/2TgjmLMdLRUAqdtlsPOLyFMxczwTwOIA2VdRjR7AW6ZjtOp/iFmM9I+jwAnu9iDEqiCzSkTjMRYhp4p2OHaZ/sa5u9cAmMASGP0QmIMnrIOL2JCf+tPnZw+wO3juy+NS/2D/a2usqxJxsqHRF83JUxCoLQkWNCAzowDHBJ4FSmYF96I0y5Ma9Mxx3Dtcp4q6uRLlh9yuUrT7rQzXUnWkgv0DoEywseGHqoTAhMU+Z7KC6xLYMHYGUAJ+SKZjoJp7MMSjeyLbv0jHlET0KMlY1V2+2abXkGs6fWj5kTzCaz0gvt2d4fLsaGucmcC/wpgBeAGMf0RhLorByWQs6kcXlqZ5Vm7Qe/ORETdZJDXbR9CbWJlIri5tjtN/3v3q3X9ZXGzlpXKbCaalW5aCVsqlRmgatgQiFcxD5Ak/KYsbPKOfz2RKiUxYrUQK5gRNAyfoMVG7rjnocnppq9p535M+e+5BeEGIR/D/aDwDueC6uawP4Lms+JhqMgcrzRSJxB4cCVoCPU1OZOa3gBqONwfdT+/UnD3MUY2KaR0McaZtv/2AWyrDhGh9sdOzaQ82J1Fjko1ASax44C7IMBaEM0jNtYRM+L8Sy8MKyxfbsdds2yPPjFyjD5omg5+aHwtEPYUq4CnYZhODI9/ujBrbfs23FLX6WxZNB0FRo8HXV5Ah6BieWu0ElLJcZ1gAUy4Va44KI7lp2UoSmq8JcRZCMMlsRmDrSIbAJFQf/odGHnblFvDq5c+bIFK15U6Fuer/SkCvzoCidIIbpoksUm+NDyJs2iyEbmrNRkWwZIauNhcunRSbs9IzBnMdYOHA1NgSuZTLpKAgzxRgfReupf+xaprOOATQSUK1IP1AgIrmvgWaFKEeE6jY6DkPSec8uOMcwDwfNdjEF4Yp2MWWZYHBxg5+1n9o2km5hCJ9Xx/Qe23z9+cGM6vaHi7V7eH5bdhjEtmlfOQ+Uo4dIUasit58NpJkZGn62koVQyn8AGrAIpCiiJFJcQ/9LcGGESbRJ4zTF4ixdS3VutlUbG5FQ04Hae3L30lOWr1uc6FhlTSFkgJCSf2kmMThye0oQx6yPa53uZGLexjypw9zHbRszdPvyJwpzFWLmGe4QkjtAGyEN6oAlqDQgyEpg34DGoxpkeHRM0A/f5TMQcDg9Ih6xpwFSeVB2vMUQjoIpXYWHCnfD4I9U/NfA8FWNNI0c03cK6WzMcInVKM/YhDCQSsKyky8ks6KHd23btuG185LacONhbqA8U6mVWDViLpRE9IOaxkQrmlgLrhLlKQmAtT1oBzh6bA4AKK3YIuhVNKybLj0gZzAYvAACGpafH3DUs0CaXGq+q8qOt3ES11IgXdg5cuO7Uy0uDq8hU0bQJyAM1UyK3sVPp7AkkmdZggXNhG0FIRy1oCskUUtjtJw9zJzYZXpJi9IBwQgpTxzGRJ+cTYnzNciBEO/WxgYoxEFZye2a6agMRptIwZYhRYIzrU0w1LOvOw/MVIMDY02NtO2KktVJpQlfTpjINwyPN00jHMI4QNZ/r6sGHr/7MX1/7tT9NR764uvfuU5Y8urxvc8Xb6rFDTDfAgjRoDAuKMmFdU+bA6cU1Ug3gSkgtXDxYHtSFrS1LSADrQEtyIR2MNO5b0aId5dVch5JNePJQV3nvgs4ty/t2nb2qGg1f+63P/c1N3/xgOr1FhEPcNCRLqC6KGklkaeRVw4aRnkAEPVMpdbMNtpZnBuZujW3snj0QsihCLmRlgsYnWi0lhPHy1pGZg+1U0KGmbERLyCYhAJUrrlpcBD7LpzDCNPUjYgwFwhi3M83D89Iaz5rimXOyXVzCDidoMrxTxKuq2aoN795w69fH9163fq1evqjB9O68F6pYpQoiIgX1C0bQlkCyRMKZMWG7v9ktOpkZTLYAGYXBpLmI8HjJ6yYTTow7kzHzf5W9qRBHk3n2Y+1pp3uyWdy2h42Mdy5ddfHqUy+rDKzxvAKTCH3tPCgbmsMSYVdvRsVigHJs4ZACWGjQCmfWt//Jw9zFGHoORxRhYEMO2lKmtMO5xx0aW0C8gRjEm2WkowMsrzY+JF5whCeWJNiEE4dMCElelhspoYAxGc+PVD8GzzsxzqxxBm3LTG9twConxOg6nB7dM7p/096tt5nm9v5ydVlflJdDQo+6aH4ML1gZeGyIgeE+kyASM9AzSBzPcsUst2VXrKW0p5ZTrW/N6a0exLQw1/7MDAUwVoTyaR4JNisAMiWrKiWPYtTIjVuIWaUZdx4YdSeqXfnyaYMrLurtX1fp6acZYAbc6WgOfgfHcoF+2eCcykad1GS0BOUdVxpOAMxZjDW1lcbZobbaAQ5+coxXsI/TVDiKO3ESTRdkCn1F2Y4JVIot0RIEapAKTJKiMYNK5lpm2q1Mh62pbnoto51lHp6PYkzxpwVwGoDDm+MJS8IDuzbtevSO1tiDZW9/f8dYT3ki504z1QLzgN9YHDAdML/B3Bhns8tHCSPpbU2YwGMo93aFYDAIG7xIMDGNm1IRush0GVeMiI1TNbJFj6utGKNAhMCExhhXuHY8ZDBKU1ztFBtJZWyyd3JqIEkX+52LV6w/o3/ZGm58o3zhV1LlCkm+wnNfjB0tXE1PvWMtyJvWumB0ZxSXmCm6QT5M6qlulouJlxxwmJ1QeWxA74g+eXAhEw3jpo2IecHqb3zz0De/m4w29at/Qf/Sz/d3tUYDaO55sPC8E2MAGOywNTdMdWro0P6HHt34/XDs/pOX6uV9cZ4NieYQV7FwNPPBV+S0cuPoBDaO4l3rwCI/GVTbL2tJUDDHn7LMCGNgKyP5ebzg4AKZCnsdCSmUzkaeUQbdwxEu2QtUktHw/x3uCN2M6Z3HspUNDTUgE1GKTKkZFw5N9+0c6nCCgQtf+qpFK89hpqRNnts1CdqtoGIRw+PsuSfGhjuKrDGcE/TZS03lRzenH/nkxP5hFkB1Jqx/gL3lLc4rr1hU9sd806Q1k4Eg41F8Au+I0GmnWtKwPNEGaDSJT0uxipA5oeaV+x4wb//Dane/PPMMtuoU/frXlgfduqdoymvGoCCAIP2J4MRiiYbUgC+0Ec4C6EpP8+B3UYcsiZCNcJqdozuUkl4EQjsy3wxAJWW6HQwkXNgLSa+h23vYgY+QHMfKzsOz1KfkuGQryPYokpLhmHrZliXqIPLNBGsOSSGOaKgTzVbwX5CGWkcjNXAyySpk/cogK7l90q4qZX6dLz8hYmzxkmVDJmB1tuLDAImolfaIDmeyUBfa/J/dnrlL12Z+uIZTDPFjsdYtpRp7tj34yIbrmmMPrlkqlvSHgd7txEO+joFxklQgncZ82yOoVC1kjggG+tAIle0TLtOMSLCkTUPGcqYB+MXxTKNmgMScrtomHwaEZw1FAYrb9kJ5oB0SDnjIFNBsnwHXNC2kYj1oOJlwzRMuWnphS68bGjFbtk929a5/0YVv6lp8huv1kvdvW9VuOkq3KCaXk65mtdJGvEq8a1tGTn0GaFGWLBtqz8C2jcDmbCd4Ish3vetd9gBJW/ff/a3lC1ROHfR4SBWhPlsDmkYyQl0gLpFaCuVxk394q7z29vp5l3lXvKa8/qRc2Ch97duNB4brp583WJQtR6aIfJnuiFJXFPJVHUshncTQqgSel2htPOhpIx1fxSn3HR72fuc71bt2mHe++5xff3PveWvDijPtSfhluTQJjAdqKhDNKEeYchIhlM6bFN6RMin+iprc+lRBP2Q8wd0YmlrnpOuxJAGFlJARInm3mGj0QHFUTUR3dGwfpYE5Y5aKinEqwK82iHo4b3ITeGiydFjYcrWH0L1gIsEFKTMYC/ISkQ8nvpsKYRJPBp1xIxIBvUDHkS32Y8+LXJxol+JBh+kCT2F0WOQkIhBw2lJe0jynTSpcR8VAiCW+BZRu+ZVYLiOgZk7MO3fsYyet/zlZ7IMDmvWWNAhgVrKOQu/HA/KSasGRTW2l58dh5rJVg9AaSG8xZDkRlwGKTukcbigttWpHfwBwTlVcGx16ZOfD1zxw62fG9l2zvLL9vGVjA/ldebPHNVV6Y5AHZLWAUUkqjgJgSBf8Wur3jFLDnvQG/WacDcSAuti3NRd1nFrzRKBbpDwz55nOtJBpnlQDeIDkyUOoCH6wrA7Bo2fJpDxQCUhoB3at+qDiYSFcY3K8CgXUX5g8fXmJN0e3bbxraOujjJ7awJ0MEDaj/4pIBvsO3oEyQy2kbWj01zYVl1JSFVrZpXWgnK3ZIDTbLtpOtwlK1+1mb9J2BJi7GFMJdIp6gDdSJXLPLufWu+u//NbSa17efc663EvOOnnTpoM3b05PPSVY0ZV4QQJS6NZAypfVWWfTg2aLAwclKYim8nobYUeSdnOxUPFKTNZ+wc13j968I33Fa5ct6mz5ouaApHE50gMNZ3DceKEfGCh3FhudCpNy12uofBzIyAmYWZJyqf3EiCDUXkzGvVPIZUYvbikWOyGEM066E7EwVnkXSiSuAXWu66LfxuexZ9IERs1NtRO5HU3R0+Ad2uRcCEfShD6GPvJy/Y3WYKgXp7J3WuIm7GAiwQCuDFm56RRarEsni3nYp9wg8lVCz0+6uFgVJpXAyelWAxEdDYciA0uYL+IgPx3nEzmQuqVIpw45CAqRH2hBjzQtqq38gKdmDkmATqAYA9rZ2gJC2We2DHBgqW8TQKXYi9B99OIKjQLTpyvgW1lGxI/NCbJLE8Vpa2zftts3b/zfA5u/4TTvXlDcu6J3cqA0kdfDLp+WIraGFOIFJYri6Z0kqoZwRAvigc/a1aHzqHPmLiWji1k70X17TElmUrcPZsBmx55u0AiZw2miEWpGsIbafdRHXSClQdqBKn3CNvNLEk1OnHCZJ02io7HOzrQfDC73jY1v3Lf37qHhrUZHXZ2dDEaA3AiYGScBkdBSkB+UhOngiBZSeF4oR2pXGilpxAymnwbtScaoJZb8VHHW46zyrBVHgLmLMdBKQ/7oqC2PuGfLo84d9zYuvUwuWVAN+ISu64nJ+KZHWmefmj9nlYdQeWTcXPW16L++VP3698YOTDeWrgo8x3VEDH39ma/r2+/rdLzCv/3Hvhtum5xq1q/6ztS1tzX2xnr7rukHbh8fGIgqHaVGY+D7Pxr/9JdGv/T96nW3RCwSgwscL2hKpaoN89mvNfc39e7x6GMfat16V23Zqo4g1/2eD46Nh6VqQ3zo3yeu/u7U5r21/nX9qer69rcOfvzTjZtvnkpVffXaLg/BjkpBvwakKw8zI1y38sjW+OOfr33uG43vXF99+NHG2afqQhE620TN7nvubf7nla3/vWr8ezdMbhmvdi0vlErlwAPzyq9dHX/nBtMx2HnNN8c++z+jN91ZTUq6sHDRlk3Jv31g5Hs/mDx0qL5qVWexEiihmtBiucI9Wxrv/4T636vj628OY1brHegpeAlTIQ35Q4wRu9g5CjAjIAOxl6UkXTnBYgxiktdLQHmxkZKmjWqmDQRv34FqIbYAMzqJIpeEJioiM3x6rhKVwrHCbVLU6fSebXfcc/P/TB64ocAeWdp5aHFlpMsbyvPRgIX0XQs0GxmRm3oG9sVP5iZTRTSeTHcg5ICMfe0e920iG0DNMGe79YDHjp4AlB8CbA9IVOhQ2fAQXYMSSejlw7bbk+HxWKBjhyW+dByaTGYawp0uVMadYKpUqUfNg9s3b9yx+WGPKbCH8Is0FxRtdSi2soEciTHEiMbqlCdSCDC0HpphN+oN+SdUDe0I67aH1HYc0fUjwZzF2E5VJ9w5cB6pPDidW/YWr7u3fvblrG9ZkitKr7T4quv2P3rAvOZib+3S7t0TlV95x+T99ycDS1qJDL91lb7t7uS8lxR6ClBCxS99p/bDmyZvunlkz75WLYoWLdN9Pckj29J9DbZ0abhuYXz5y5bwQulvP/nolZ9rVFR0+orkwNbk298KJ3nu1EvPcOLh8aHid6/ld97f+OrX1NRoiJhmxYrC4oFT/vOzW667o3nDj+qDPWGz3rxhY/Tgfu8bXzpwyw9bZ64LH340vuWepH+dGlxRMaru+kKnJDa+CA7s1v/w/uZ1tycnLw4DEe3dm1xyRSJdk0adn/lG/P/+rX5oLFy2NJwaC2+5Pv3B95pnnd/v8TgnK3fcE37+m40bbx/fs7mxor91413RXVvi6+8Zv/LKWqEUVk30xRviMb+27ryS4lXfr/z392p/+O64FanlfWpyb/z1b8a16tRZ68uOE4HbIFVwUIFk65fin8iYbYATKMZE1jZzkHyibOvaZW52Jsw2GeQWF+gIOYgNsce1WBHTgJnThAYvPO6zNPac6vZHvnXNVe/et+0La5cMrRw4NFga6vEmcrzmpA0Zw3YrGhHORMoWaoWTWkOVYkcbRAtX4MOjecBHxt9W/Cg5uai0UZrZZh4VsrLbeyrcFgZtReM0wDKk0X4mhTQDUh2/ONhijmg/jaQPWSSHxAVD5+I0quadeMkCvxRMPrLx2/fefRszxYGFfa7TUrypeZzQDEh0JxDwABFeoX9txM7sD98sJnBgW51R6qgwdzF2IMFGwGtFfEoAzt+8N3f9PfVFq8v5cu/BfeL6W6r//cXGKevc//Orq+LJ2rv/68Cjo/xTHzvvNa950YXnn/Pay0/7+rcecjrzJ61wc07fDbc1Nm9JL3958J73XPTGNxTXn+6tX7tu357pR/bpf37na9/w0kpFNq+5dsdHrjK/8dau9/z52kvPL1/2koVB6n7mqpHKwtJZq/yoWbr5zvjeh1q//MvF9/7D+a97lb9sgefGxc9cuaspvT94x4p3/NqiV1zWsXOs9o0bqueu87740bNecv7yJUsrdzwwNeVEZ7940OUT9PzaK8hEw0jcc5f+0vXqne/+hd98y4orXrHskld0lnumPOVv31j4j89OrH5R5X3vOf0tV/T/wqtXLx/QN940XUvZZRd15Yy66SZ9/7bWxa90//7PVr324rULl/RcfeNQzch3//WKP/m99Rdf2Ds21rr3vvBnXr2w01E7H6p94BPxujMGPvB3r33jZYve+KpVYSP54Y8mzzs7GRzwjE4cmioBicpoiX8wMUhATAs4wda4nYu4GCfkFLcB2UlsMhHKikULEPJZ+SYH2kM8a9I0anmuVq3a9NCj+x76zl3XfXRk13dOWT51zsm6yz9Q5GNBWmNJxBLYJKMDyT0wEpniGa6keq3isOzaBhgkGMdsqMs617Z9Mz2jxlg/ha6g4+3rR4asjJmeAqhEKAKqse3EwiyjTJIoq1+OB4Ql9B16BCoNhhYHKCBhJd8t+Gj1pKtHFw2Y/m65e9t9G27/lonHA084jvSdIkcwYh+dUyloEqpDNCmhU0DgzFajP21XhTZStfQLOIYcz6HVGdCjpggdJpwAhQoaFcFhnBr11S9N/MPf7P2Hvx378ufHrri8929/r1TSI5MTrQd2GWexeWT/2B13P7T5/gemD23uyLNde5NQl+vNVCfJiqXsDa/r7Cof7CyMVfxJLz3U4aRlcHB1T4dTKynnzh+yng7vpS/rCILhON3e3zd18bn+0i52cEcrSVikGkaqs85iv/JLC3P+/ZX83hI/VEhHOwN25umDF51fCvJbyu6+M08tdvWwX33bknJuUyG3fdXqjkqlvGUrIuxCCmYBPVsxomJH8t5BVuxg3/nhvY88+lCjuUPmqgnNT+nbvsGvVdnPv/3UwQW7JXvEEbsvOb/3pGVs5476+Oi4Y1o8Vgv62Guu8Pt7dxe8jWeepJb1s1devPhFZ/pufM+CYOfpBe7sZOJQ3qt3H9pcqR9kqweWbb7vkdtu3nzLrVt6Oys6Ylu3gb4uXD2QEbjO4kxLoKNT74QCmApcDA61G9HX0BMBCDMuQ33TwNWs5IDxZJo6vMmifVvvu+ru7394083/Hu793PqBbRef0lxR2p9vbi/EU14c0ri86+rAMY5ItUrTpK2QHgNwLfW4fQYOFzGJRQbZwwg4pIYedNqNWD2TXhLuWaDzma0NM+dPlGEad4KAUBlUkfUCsrtzANJ22ZrPUHH03jR3DCJlVzdTGTZKvNmVa3TI4V7//vNWP/SStXvjPVdvvPpTD33/m3vvv5s3xqSqG1hmR7VcE7kslVqJSPOWhovOotSu16torCGLKaxc284eA+YsxvREx1OCbDExmNGOYm6qc4a99mWdf/DLJ//Zb6765/+75M9+LXfqQsdJuGoFtRrbt1d/+GM7PvKRbZ/6xIMf/dB99QmmVF2ZMSnrgcM7Sqy7e9JhY55pwOPyWaRb2jWs6NU8PcZq6chu1tXh9PQUuI4l6k+igh/lA7ZnzyEvgK5uxSpevAh4rXoCDltInw0w9HSyVNGVYiuXKJkUXVPO5VgxH0mnpp0J6YwGMmXTrKyLvvbs2y4JOFRLtmat+O3f4vsObn/vh3f/3b8duPH+sbrnVwUbaoW6wpy+KPYnEyc2fJq51a4B1gxNK/SN9qWUvhSBTGRC7plrWgXJBipehWtPh44fCleBExPmRqxYbRZrCfvS1ff+26cf+uB/7v7gp3ZdedWDiWRoBnhJSEdrLTxaLEZbr/oZBGCOxNMKsFSpXS2HvqEMLkJ7tGKhZC1405IG3Fk6OfHIrdfe9u2PjWz6QsW5blnvAyctHh0sDpf0WD5t+SlNioKw2SJa8HZST6scS2kZafsIblZyIAvgWBg1jvhUQHXE4C+wGRIgjKbvJULYNPG2RptoqCLTIxRfZ4U8HpT19u0G9papgtCh/XAsyMkhJeLQ91Rxnx5yuLgrQvtmpJ7RJMcAqlCgnaTjDHfo6SS6o4Ur7WRt1B0nIk5cpUoi6eBTPc7+UxaMnjywM6hfc+iBT9767fduv++b4dQOrhtagGXTmEatRcKcbEPIoWznaBI4LXA0E+Og5iN1NoMnY42hj8noE3LJiimRN7zE2PmnppdfWL/sRcPnnzkyUN7r8wkXyRr1XKxf9ZLV//WR11155QUf+eT697//7M9/8fy//NOTK4Ep5YtxiwOVzWaoTZ2xGAGKdIO8L1AJXDQjW9x1PYfX6yJJvShSQTEfwoJ7fsxZqVPHEcIwH20JU1bu7QFWiWgJh15LyEmYbNQPqFrKW75JAwd4VvU0YQLMxaoeSwsJ8+rMi+mLZtCBMl/GP8T7spd6H/3Iinf88dpDk61/+JeJW+6YiECdnIM4EJgUwnPhE3nc9QuNBhOBgC5WjpvoKNUm73f4spM1hGkk4GAW1lWjLo2EZWn5ooWUhTB1W7UoDg37pw/+wSc+99oPf+K8j3z8xR/5rws+++WTrnhVlyMhPDEcSgVlLREeH51uJx7ACbQRs1tH2kX8m3EHqSaaEk3Th02TxyPp1Na7vvfJr/73X+x78Aurevcv7tram39g4YIRT+yTfBz9J5GfkSRiGMvquESDPbPPcGY7h6jXIwFD7EhLddgRZBrURSrIX5GZ2H71s0AhKXKRaYJQ0nuz9MliclAfD+R8IvCERYMn77hSuvR+opcn3oUCIWljrg+lgQMTR2mSOH6uiBbQrTkAGTF6YE3+A41rE25whL5RY1A5bWgkDQIIX0Y5sX9B586TF+1Y3b1xRcf9O+/92Pe+9NePbviaz4YD1oASgxlpJdAmrv1CjWfoUTUcbymoibYg9J++X3xUfrAtmAvA93Aa9NwYRdEzuIJhfpLQmAV3SzLn6yDRTpQ6JvYT7g0PdjdW51nt4Z1FdTAIRryu8UVnRsXug7w+XGGlZKzoiyW+x4MCD0oBXJIw5UnLCyN6d1H4PUrKWFZPPks3q8m2rQnzK3Udt3Lhw8PJgQY75ayFTOVFWoKAxoIdrI01EFNKVxfKphSEghUqXqHsuYMe79ZKhnHIIOciz1Qo8jyPOMUDwhwXEg+s533WmGgkddmo9cpoSVex89xzir/3m6s7NY/2mGKrc1lnPj/Fxu4J4/152cyxmje1R25/mC1c6nQuSmKnmvoN6OVGS0dKaD8vChXfZYXADwJETyZJyqHK0btaaq/v7lizanJJH9u24fa82L+448CS4vblvSO9lXpnWaqo5YLNEEhZ/WvZc0YT/0QAjE0vDFmj1ma/VjOmOBw8TW6d5hrWT0Gv8CSNa62xnTs2XP/V737pr1sTV563/oGzT3+oq3D70t6J/jxrjYzD8VWSlsoxiLfIrtsiaYoFd1LhJ06QOHbOCzpEMvRYt3CoPMY7uOxVpkM78KrdhBVSluM830pAJPgBs262zU4TJrHNSJ4tNQMy4zDXLsJRx0QJjHeUePWWTCBl9pV2bf1oHTPhCCfwpOyK0746vGIakj8+kGfvpMZJtESAADShbgienSYCfiIskrKA9ku4wwQ9zGBJzWdDgx27B0t3X3r2oXOWb9l11we//O/v2Pj9z1b3bHKiqAwjZrirs3cieRrBrhMdYNMYIi4JI9pmiCPCnMXYogZF2cjEthR/PkVPdTYe+uMtP5xGvVBq9q3p7gX+peeK6R3qq5/ecfsPvPvuyF/52b1f+uzw/gdCRJKIAaWbxglQ6bcajThKcgHcSZfe/2amHrZgktxO9fKXd/e0om99dvs3vhdft9H/yrXsK9/e+6JTnZesSQI17fEEHOZ7zPfL6IgrpK4qI4WAV1ZjaUPoapzqcSHqRahyp5g2GTwfFdES5UhjHxUYFZEOLAa+7xavv6r6yX/f8c1vTPzw7skbNtS1w7rLOd8PTzozPm01/+qnHv7eVYVb7lz0zesrf/9fjzTL/OWXF0tBCjcQQgvlHMicgSoB8aBaUAnMfxJrMJOny64uw4lAJOLqhWvF2mXO1f9z97e/eeiHtya3PMA++8XxT31y36H9o+Av2BcdhrSKBWHiMKY6OgmfHlgmtL+0MeZ79uMpJhUy4qbGzLQx07Wh3ds2XHf3Nf+24cZ3p9NfPXPNrtOWH1hQ2lPi+710jIUT8Gn8HGQY4bKmIVgYbnKcIWw5pios6RRJAazo6hTEgSWzuukxiJuovFObviTpi9K+UHVFuq+p+lumP2Y90i/qVNKsHyv7tsFoK36s2PwYAHsIBzKHgJ5lu0FsfMRFqRM0Ygo6yRGGDIMZUqYS59FN+otfaYzX85C6GXQcE2bIQklJJFBWZDd4EiRsGS6BAQR1qQgh7aQxIcwpTcKWjaGBYPSy9eLSUybZ6JceuPaf7rrm3zff87+tsU0irco0dpUOJEUSNC7PEUxCbTyOF34c5i7G6DQNU1pHD21NGG9GOuQwZWmk5bRj/SKlHcQ5cPYRBr7p5zp+562V+++c+tgHt3z43/Z846vV6kGztKPThfjlxpgYyjss4DnfOFDcNH/ATKfggcD4uZoPM5tMn3Ga887fWlJM1Ec/deifP1C/8gvNBX3+b70pd0rXhB80mJmEFc8p5rWUawoI2RzPMzTxiuWNU5Qw19zLGZ/VOtHkRuSDuhEXTuLAcSdMT7k0L5L8vVZcS1T9pNOKcZN/+pO7PvzRHTfdfujyKzrPO3uQO4cGVlV/9x0Lly/in/3C3n/80L73fWbXXhO//U+WX3C6k1cJXOqiZAGsftxUcU2W0YYU1PR5ks/5SRwpNe4lk/2MBc2Ea7fS7/zu21a84uzC1744/M8fHHn3vw99/7qp/t6FlWLBJftCAxw0BNqmzTGp9zQBdTyBaUlHwzVUkkOwJpk3VZt+9L6bvnDPDz518JEvF/ktpyzbum7J9p5gc4kddNNJRxvfsSPrdlIXrB0xsd2sF4EAMs+g2iHM5LCSW2GdTvDPjBgTIWCxKtWq981vjv7zvxx6z7+M/cv7Wu/5wPR/f3Fi2z45Wg2U0xuC/x2PxDiz8OBCsiftMp4AcKc5HJpUa6WlH9SmWl/7+vhnvjg6NBVz+pg5TBwaDG6g9mrj3Xtf7eP/Pbx3uBXRoppHKfQwIBTBOlonhlJn5+TUUKds3yl+R+nwFiATAqV69DoUDZsgBpOuL+Oc3t3nPbR+6dZTF2/qEreNb73y1m+/e8PNn25NPCJYFZ42SrWiC/fF1+Rpy2OwAupDchygBcebU00LLSRGJE6cR4MRvjZFz85hM7ig0REYMYmkKQsofpIO15OR9oPU698/Bq2uJ6aH+jpzfR7rQOtyjSmjU1OZPNRaOtgjk3Gmmg6C7JqshoU95WJHKeppTQUISsHSOpiu9zbjgVpYk359wQKdc1qeaqRpQyVetZZ3ctLPtbSOilA0U6lZ0Ll3CI5gsLicOI0xVpBjUcehSW/VMhNUD+lK0Kj5U2MBgtwF/Voko8pPG8CAz/KJlGFpaJQpb/HUaLVYSrv702IygQgrysEnLMRi0ZY9cZCrsHS60l/3nKkuzxP1OoxMvdlZ1bJjMPX1lGrCHVgwNBkrr96dj/L5NNFu3Bic2MkXrw1ZOJKWHSfsaMUdQ2GoUlcm8P99ZUa7yjWRNjyaFgq1TWgH/onZiHPhx9F4Fwh1AudU0wMTojtJhpVfAuTmrAlijA9tuuf2H44e2r5soLWwMlTwqr6oO2rCNyHqI1ZFvIoIzhMqRouNA58EFpCKac/EJCDphdxAAFGRrcEKOQ7JZ7N12jHvnqnJrvd9cNOmHWzlOtbUbHya7dlLb1O84hL++7+7JnAmXT7p8TBrKwH51QizIYvAwGHSx1kUMq8oaMkvqt0bGW78y0fYvhr7m3e5p6ziZjoxde7InDQt+EpG9l15ZeM/Pjv9vo/lzznFL6fTM0/JjwzUPWoCha3UdhzZ7hBQG0AAyBuOOL0dCeUGlEB+uaNIso3wZBKmsHOoOZvhA1VTS30je2O2YNseOVLr7hg456WX/7JbGEB8BUxGmvQNcE59f6yfj4MnI8bcV4KCASfJ0eiaEyrBQs0D14hQ8riTVEYyYQqOjhLpCea4o43ILdPcL9+Hr4hgmrnGnW6poEtHLVbwHVMNpOtwU6cZpiS2bCwgpHTF9DgLqKI1S3WOxzk3gBc+EdtFfzzuSS9VIT25TyLjlh00x0Sp9GlgM/ZBJNeBiyDhjRhQU/i+qUFCTNMhzvCYm4aO/WZkErtxUiKKu02eD7koOCpJHAalEkF+0STjkheIOMoRUhWKzUatnBdRM0VEreuMugmFmxgViDTVnssU1We/ewUEgMrArmBJI/BlUZhpRMraJQ42LaNKNGzhyiCMtJf3tYnpM0QqxUXh2cAFLbRmDUB8YbnlhIoxAkQUSa4pMYHQWjei8GB1YvPD935/bP+Dg53O0gWdObEnJ7Y6rEUjRUhOMmtXqYWJxQH6SyzmUyCtcE48hWbQrIis0RbatjPjNZuEjtpt5GFUGJ9a8u5/3cQK4o/+5KIFfV6SpGPj6f98+qFrfjD9qjcW/vC3F/Xlh4WqA0GJI3lSEKaYCCl4zTNVB94DmEyEQDXCcMb7bVwDHdlK47rbvWBqIp94PcXy7qR+APG5byoM7hvizpyaStmXvlC98sr6P36g4yVn5fNqFBpTMV/xXGoCesZrIsnpqzs0V7rtBEAVoelZVywaMyCBJq/auhzEBQj6CMMU81KM6/gsig2YhNwA62gTBiBikB7Fwrhk5MJq2L1vRO48KFaedMmKUy7uGDzJzXVqetRMVdpKLCIJ9e1jwNwnY8JFaM8FpVkvFAYQYehZAPpGrYlpqQ7EhjSGaAsEbzuQW+YpJiPaUxe19hwa8PZRfIKUCuqGOmQrQvdwPSBvzHYVhdPgopKo2rSkpLm2VCOYVSMKpgT0fhgFQJpOYbloqQgmNY1WEBKpMRDX1LEvEaFMijNoSrZLX4GlGa8plKcH4VAFyYucVlqDSrA4ttoPZYJySA0UiDRB8C4giZAbGri23SQsoPn02dgMFaiIOBmb1cxI6ThASwS8oUy6i4LtsCuaikaizdzEdn0ny/lWdVJ2nNgmZBvAMv+Jm/5BqACV0BOWpq3p6e27d11/352f2rn5ixVx/1nLG6s6x0vx9qIazZnUpUkKVumjYHQcaLftISzhl55NEempz9bdbLd5JjnalaUHPmAk28922olowYjpVuXa28OkFL/45VCi+wrmQGfQPHNF/7bNI3du06ed6i3tajnwa3h+T91/+P7c3j29Dw4FkYzK+cRRZcFKqU4i5u4eCe55ZODRbZ2jI57rxZUSj1t61/5kbLJRdkYrOUeEbjPp3rqdb9xU3DYup122dV90z8boja/qXtQjpW4ZWRmZ9B7eWdqwtbz9YHmqwSpdXUy2pBejVxBHSYQnaZ3ZZjpCG9gMXQMdoVewIxlFp3EHFgFqjriX7lOvCRP4567RHnDr88gzEyU5tqBSW9af1ie3bH/0rqEDe8Dj9EBT+jQnBhxCzg1hE/vZNVXmbo3BuSAPnT5vwaI1G5ilSWmQJDs+gVMak0EIBwNapYGKDMvPPbBOcHCi3jeG7aQXAlQydGDzzs03hRMPumrXYGe9q1gryAmhG2AuqeM4ThyXcJMVbDkIyhwKDVfBtUBglLmY9t6xAPft+LUUir7/SCXOZNw3tupv/2XEdFf/6q/7lvLpQEHrQRt3f/dHU3/68fhX31r5nTc7OdXafMj58Bca41tUTrO9EetZwl73isIbX9Zf0A2Wyhvua/7PN6f2TLBShSXT7JTF7K/+v8FSIP710wfGGfu73+/MmWoiF3/16ulrvjtlmsZB5N7pTEV6+zb9kX/uuPxM1wtjuLX/8qF9mw8lCPSmplme89e/pvcNr0m7ixNlj4XjIvADZlrENkcH3LMKC1jLXs+fSfw4CQIvQrhJ3uG72KFhePSQR5P4lWboV9OO4UZpuJpj/tJS74Ur1r5ywcJl7ZycK6Ucx/rlcyH2Cwco0PStggQa4LJbL6CNYXB/xETr+a+qngTAEQo5v+fh+//nyo+N7Nq4tKLOWBAscZud0VQ+iQKVpvVIwWMq5WOXpdjs+DPwA34TaU6kJZGWuUKE9SS4iJ6hkAVDQYflsvNL4LjRXrk0lw10SOGFjZ50Wr4ZsdGqWzNOS5Y/9+XqyHDuHb/9on945+X//k8v7+7ouPLrzV2jqXLN9j3el79alTn+x3++5gP/cd7/+/ulJ5/uB36PA5XtsLGE11PPK/Zs2MI/+53J8srCP/3jWe9757lXnNlXG6ZBYbcQwyCmpvS+9x/YtI+97XdO+dv/d/Y/v/vC889b9/X/Hdm0VQnpI8xy4LRnz8yOB3ACtaSJRfRGJfqKbTYfDugYQS9QiTiAHjFbzxdXCT/Nes0PJro7x1csqZ9xUrK4Z/jg7ju//OUv3HnnnWSTtY6iCHtbFsGTIMDzHsA9JLRkBgjowHYfp+QiQ4ZbmZ/5UwLwxODJn37yaW9646+lZvGjW9P9Y0HsdJt8LqVvNYReQUkE+bUmcEIBCjYYU/LBFZcTTI4wOcboq9dWNDOv7viAsBnMDUsV2Ld3Lf7trCxpDMSYIidcARVizuqIcwbzMaIeDdke3lG+83r2ygsXnbd+YVexuqw7ed1FJ7UOmdFdDd/t3D6Uf2CXvvjl6684t7Ov+shLF+vfe8uyEp/iaYu3WN4U3bToJb2bbldqkr351QuX9x9Y03PgN1699BfXd3XVmVtzw1F3z+bonk3Jaed0XXDe4uUF52S/8Osvv0yOss13uq0xRGZMll2DEPGYprgN8MCBKdhX63gYaBPt0ecs6F0n28EsvMIxLIjicNcjlVJw5bF8F8JOXo/4+JB7YGuw+R4TV7ve/Kafv+CCC+AdwZf2fZ9es52BnyYxbsMMAbIYZZYcbQX5UwRw9lyt816w5uRz3/Rrf37aJW/fly6/40Dx3gPF/fFAGAxqMH/C6XVYIxx6FZrL9LCHviIBQxsZw/NOhIRkz4G1MzwjIX5gfa0kt9GOXxRtJRoC4EKci6k7MBX6woXop5wX9+91ophd/d3Nf/bOb/z1P939d/9y42e+fEcrYmND4xND8cFDDbfIlq2rpK0DvSVEGfVWY68TTLG8A0c1VDzUSarSqJUODLC+QZ3v8lI+5fPRwYpfRBs8XSgXR8eS6UTf9NDwH/719//8nXd98MPXvu9j/zWWskkd5zq6jHbD8YYxh7HN0cFqKEhwtsETRBxnNworbJ9tITR0omjcmoZ14A64sslz1WTRvtHVu/ev231gTaQvuuQ1f/srv/PO/oEFYRh6ngc7DMiWRsrgp0qMoRPpE35tiSXXziKC0N2+/9jxTwFIxh1NSy2lXESOv+CMiy/82b9cdsH/EUvfvmnyzDu3dW8bH6zLpQnvZiontCeUbz9xRiMzbSxZa5NKgxA9hR88BwDiaUSOMA8GhvDbkSBIMK2ZENOLBtJEjooc0/CDmr/w7i2H0oD1LvS42zk2ieCR9y4ZWHrqKUvPXrHgtL71lyx549sXnHraQGfQE1ZNkGOt5KAWTSUSmDdWVrHbZGEtlSwqOGle1eNhxuvoQdOwSWVCx8T5tCGTKlRTMYn4ZKrhn7P8oiUrzz199TmLO1cN9J+x/HXvWH7SJaqlpnXk0voe7ZGA4wCHywz5VB4H6uhTEkAZ/Bk7epohEBvZZIryVGpSlkt4z1RryZ6Rtfc9umbfxOVuz2+dccnfv+SNf9277mXMq+Ry+SCgZXQlNOvMQFcGP1VijMArBrto7iQx0xpKmoaVoaqzhcJSoFeWEwSCmbP9QgcauHR4CqMslUMryorA71q5+uL1Z/3Kha9417Kz/2JH/aXffWDJpvFTmmxdiw1ErACJNeT+ZuIoaKQwRkCLoJImQM0FUA2xrX3rgkZ1KTQEw7vaUTQTPc8ir6lKaYKmpXJ6f+VL/z060CXWn8w8ZpYt7ZLSnLu+9Eu/WPqt3xC///byH/1K/vd/MThtpXDS+uKunnCKheNJLhWioR3jObFxrBlESB/qNG9kLqqX3WZtgjVqRSZbqRvFTm2Shw10SOWlEl1dynPZqiXxb/5c6Y9+wf2TXyr+xdt73/Hm3KVnBr5uChnywKgUjT8+ADtCJ0zRmgTAFrLZcX4ggJQRjUs6NGEzdVTLSSNvsKHP2rhpzR0b14w2Lj/5ov9z7it/ff3FV3SvWqWKefoKIj3VQDFtgF89O0wN+Kng1zYAZfCGyJWGdiwKv0MZkSotCg7QA8YxzKmPx25h4KcFLZwQAPsADYaILcd0YLinZeD0lAonLV37s69568fOf8N/7Kid940b4of2dU3LVa1gsO74IeynK1OEzwl3ZEHGnFeNTI6PNeA584EguCCDFpEWtNBqahTcZj9HBBoarTSaqxVf8cCm+K/eed2+Q/qNr5FnrHTLZnr96nRhiT1071Acwpr6jHWNDEePPnqgNX5QpAeXdLUqjN19027FloZs5ehE+eGdshrm0sg4DjeJSmtRoZA/76wBXWO3/PCQkMu533HtnePfu2W6pVkctjwvXbBYdpb5g7ePxaNTpbRLjHpBi+99aPvYrkmPaRrwSyLHfnH12ID7NBeGG8fXTMVGRdylmMQIExtdi3Q1Mi0W8GJn3eked1Y8NNz9tetqoffKV73t05f93HsHV12a61qCyCIVkaLNWhaY4BlAFbDJWV2An6IHTlCJ0KJGuY7sjFux9GIumtTHFFTO09QGowwiPBBJVa3X95wDtOkEPnAyLLFPyMEU9KqdDeEYzYHyPXh6ZCdRHYqJwtrQQw/c992hA7f0904vWxCXvSk3mSzQWAw8mZRUI7iITDRktF34kQHlwzymPj3tkzry64rMJcJSd8+unvd+fPj6+3Qhz/IRqyesUWCVDvmGV3s//zP+srLxJxvMcX90U/yBz7IDdbVwDaysv3047uv3//P/OCeVmy217Movj33ye1XtszWnsb0H0TT+kb/vOa2j/Pcf2rEv6Hrv7/YNpHvGpsr//ompa+9JOnp03wDbu89fvqLvrg0HPvpp/eI1rJgUvnYr+8Bnouqh9NRutrQruO3hcMFa59d+27v0zE63PsWdJmJ1kc7B98hQASTCIaCnxuTuQY6Fn+dOpZW4jQarNvlwa3D/dH9H1/KLXvIzlZ7VSey7Xllnq9fTNLvEsqLizOMMHvWRyfpTJMaakC8F79ZpkOpJkad3xEwKnTZ49denunucs84VQanFWWTfUG/nek7BiRVjmo/VfmiBXCibRmJo5h89TabXFBOdcgnjAUsArzmeHt2yfestEwfv4dGewUqzt9iquA1fTUkTMxOCRyQaMRcxVg7tYc79GEXT5wRirzpZvvYutWG3r7lbom85RAOrklWnumtWdZXkuGyM51C2YQ1WfGhr4ea7VTNyo3qz/2R5xkXF8/qm8tNVY7yJtOOHG+P7dgR1pbu6o3NOa120ttTRYj+6sT6inNe+olBS4x4rjoz3XX9D9eFDrNDFXnRmZbA0+O2rH379b0wtLKqS8RrBons21R/dkNT3gTf8gYWNk89iq9a6XpxAGIXX0LGCO9fu0dGAnskjYqG3kA1y0qRMJnKsSe9/dU03OsYnio1Wh/QW5PvPWbj24r6+xTR1SCLwdtB7xxpc9BeSzOnFTeR2GD+qG/BTJcauFh2H9ovvfrtW7opf/3PGz6k09OoTld982+i6k9gf/WlhYEkYx8oHRn8axBjFITfSOxHjEUWqxg8j6XtgPdxOpWhxPq1o+mg3ZNlB7SqZHts/Pbp5z46bxg/c0VuaWrvUlWrYY9VCOeDNcTv8dUzA/aypgoX2iYmXchPlhJ8Lua5J10hZihJfxTCmdZ0qj5dyLlNNyWmWFnfzkfY0PH8tuOPqeCrOJ24ryRVZ2uCxKLTcgsx3NhuTLqsHrBkI48Suie14kwfPPYGTy5K8gt0t5afDaiWQThXyw1jHaBoyN3LgK8SSucLnzbyUFWNGlRcKndKb8J6Aj6ISxKrHEwWIcYpUeZjuMK0z32VebjpUIe/ZMyQnan2d3RcsWXVpd9/JXr6Twz4LkkS7qBAkz/guFQ9iUjUUUWPLHk8dudqfKjFmMfd3bHHe96+NFYvZn//tydrblapW4FSG95elw8udLS9XjVtRXs5FCJ4FOMFiDLqD+DRtO1H03iwOXEgIWCWJtU+r7sSCQ7gcnXjE6Y59pET/Sas6HNUPPLzxmj3bblg2qJctdNx0V48cpiGvY4OtlABiTF+H4F4s+aRmBZF6aZyjIDDXoNFs43mmUIrrMQ9bDkvp9UMnj+g5FVwW/XCyWoCMNunFCOEz3kq0ZIkrTJBP09RPIEOcFqYgK8h4gOJ4LIOYpzkR8wZUQDBtwlxFmGk34F5Sq0eBzudyrJFyJzYlETa1l5e1KstJz0FswSOa90HIcgV4RTWPKwr0aAk+TAsuX0nxwVrYPTxV3LQzXnbSS9ec9YrKwDo310E+Ns32olegYYIpG7lFSRbQ2NHAgOaFAGM0vE/7I8IJFmO48AjHoTsc5M4IBrVEb9/lo7RrYlrAMYFed11TKKui3/DZpNA6TEt7a5XOoidaYb0JxoTOTYuVmu/XXKWgrZnKTaviWCMXR/DuTKEYlTtqgan5CQtVef+4LHSrJM6HdddzqgM94Ek3bOamak7MNXfSXMGUiqHDm2nL2Xhf+YMfH128XPzyr15cyB10vGa90XTzA54zNdhdVbWJ7s5KqyWman696StgWapKPq3k656YBi8kaW58qiALDpf5qSmXFoFxw3JvWOCtIAmBJq39g62ORjOAQAmn1dVZr7gt0X5l6VhwXLYAnFgxRo4sk31DAhtoxVOlXIkwDPkpVqbJC7gB6lPJ9EUmDe+OpnDTXc4ak6Ob77n9W4cO3L+ks76qu1qgLwS0XF5zGK13gtQWqAzsqJj2iX00gKBcc5kIBnc1kMa0yN3GRVhdSKbhE1UW+EHed+iVF63QyyRROucYA9G3PoQLAUeEDpaJdc5Dwa1IFXIQuoRMKiJwiF5B0+dnYpa6vlMsVKsTpaDAk9gpJM2GyMtcXAu97gJImzZbLq30mZqcSR3WjJlPXzTJCTi2vCV8WoQEkYADuYZ2I+RZ2UGXbI9wQGJu96BUKp1GjDw9xizatoONTHYNLn7JhZe/lRW7meOj+xEKcOh9IpoXbwsjosGFpgmFKADn0Js5WkrAGmN6UGfr+XE4wWKcCtZ0SYah92iNbZRsuHIKB6ZyP7i5+NVv7WqE9Lk6iPGlr1j4+stz6xeOBDp6YFvx1z4w9fqXLattObRpW3MiYeUFzht+yX/1K4NiNN4VB6O78v91Q3L1HbW44adxetKp/ht/sfPSk5udrXTr/sobfnv/z/yW3LbF3XpPONDDPv/p1Xs2pd/99sR9D05PoucBW7mq+Fu/1bNmkdh03fgHPzK9aYJN5Nlgf1AK7brpRWfjnuZb3lT8m99ze5OGb7qu28A/978TW/dEYAPwz7kn53/1zYXzTgMj1A4Mld713vrAaQWe77rl+r2NSVEopq/4+b7ffn2lvzkOx+++DfE/Xt3csoOWN1LC/MUfi9eeD/5qHMUbmgGrko8LJ1aMM97LYGbyGjK382c/xKzgSjoj185moZJVqugFMlpHIwWlx0f27dh878jeu129tys3vKAy2RNMeabKU0SFKBkhoqZF8cCQxLU0h0tYjNjHfVllZG6g8cFrqAcX6JUWO24mqG1wFmzXrJAQ2HLsAfZ0C7+zPaKYiE5wawazyI+CKQd8V3vd5saxVSv2nQM6pX9YI4gZisepxSitXUkFQgpoCS7cpSkq0EvUH2o43UUWJUQq3ITLyPhT8cKR6uLpmsec3oFFZ65ed1GhcxXFx0iXVU37GbSjUHsxq8a2A4BL6Er7RvvnSPBk3nCiPtm0Rwd0DtZYaOmkHlGI/Pp8I+n93NemPv350Ze/tvTzv7j0JRflFi7s+PKX99ca1dNPdyqu3n7A+cKNzZF9U+euzb3pZxedfmbH9t3pLXfX15+xeHml0jjkfu5/pq9/sPmaNy59+6sGXryusP2BqWuur15y/mBvuXNqKvjKt0d3j5oFfZXf/Ll1L12f9lXC2+8aqabJFT8bvOGNfX1d/LYba5FunnvuwEBgero6tuyOB05Kf//3T7viRbnLLuw484xFd9x7aOUS95JzvE7jbrir8Y8fnezs93/5l8qXvLx48rq+B+9t3Hb39HkXrewps8mR8o/u1Hdtrhp/+jffMvCKCxbuP9S88vqp8y50VnaLyeH0//1bY7Ij+NXfOPWNl/effoo+eaXoK6USLmtGlzbxjgDHQy0BIZTecOo4MetUP25Du7Ltcddn7uA3+28nyB5aWnFzOGK7Qk/f4IqFy0/Ll5dOTvl7D6TT047jllzfc2jVD3p2iqaTA0mrL+WpIMSaEAVrMiEdtEgdzasAxyElSYrlOQgUOgi2pimgVFsGlIreTKMmZdYla+PM9vgTCzYBGo3t8JvYsh/aZedAofaFKlE7jUv+B6qwLdPtx+ZQPHA0DAcShIdscGdgLULDWqYQmiVTjVU7d/ftHxnIdZ655OTLTj37isUrzvWLCwzPkVKaQaLtWtZ4XJztAA6yZrYb276c9eIogHQnEsBFHqimELADxSCMgGuxY094773xmjXsbb/S/aKzhl9y1tjb3uC/6uLuBx5Ktw0JU+iAOTEJu/CC/rf+Us/FF4Y/c7n7upfm6mPslhumk1pl30739o3Riy/ve8vPn3rW6RwZ3/qmwea4vunm8VYIAaGJ5cv7Ov/0d9a/5sX1114s+kvuKy5Z+Lu/v+DFL/WW9tZf/5K1py/umTwIN0wWK+G6tfmOnFzWwy46rfXiM4YuOW/65ec6fYIVIuYnLmt0/eAHzWkVvOXNfW+4LHrZ+umfe6V8y+uW7BxiNz/cbMV5h3drHfT0sr/60zWvvmj8inPrb3q5bCl216bpyPXToHv7EC9W5FnrS6ev5a+6RC4ZbCI+ymR4VpJfAAAvFYYom4SA4yRJmOMFpYFl6y459/I/PO/V7/IX/txdOxfevq20pzFQZ90tGu+h1+ZpphaEAsYPrGvnG8eGwa1W9HU+klhyva0YW3kikcpMFh3SNdyhKJlelTSuNbXH5vAnA7ZOqlb5PC0IVRQqhzbjChQN3GxsiUvtI8UJX96RYZTUImVy5ekkUIVVk8nqux/O3/1Ad6X3Vy667K/OedlbV657Sd7vZ6yAOIHmF9ka2nBc6ZwznGAxJg2J4EkrziPjxMrXoR/vHKofHE4vuRQdbzjhdGcQ5xq19asXTU6w3UOFVux5uXwuYGvXso6Ogzw6IBt7Vg00OotsZIQ+krbnYHNkmt3+6MQ73v+Dt3/o4Z99/z0fuW1ka8T21rUsJvDVcoxdeE4y0Lvf9caFW9fh5KKOSm1P6f7r+j/yT833/eOB7VujtMlSWuGL1jcD/XOalfh43tR4fcSPxkSd+RrhWC4JF9/zICsvzS9b5sjJek8Uu9UDy5dMuAPs3kO7tYeYS7OEnXwS6+6MHBMjCDz/9AX0xp9y0km/5Lpvfo186PrGf/zN5h0PBU2dE2VJetuSjvQqqEjGhg6e1yAlDJPR2nqVECmA8DwZwOvggd+5eOVpl77tird/LL/0j+/ceuHtD57+/7f3JWB6XeV5Z7vbv82mGY12ybK8yIuQ5QVsMDZxAsQhNIESkqYBQkLT0BbI8jRxSnlCtj5Nn/YJIS0JXQgNWZqSpkmAsoQlYBsbHGyMF9mWtWuk0Wg0y7/c5Sx9v3P/GUnGDkKakT3yfXV15y7nv/ecc7/3fN931pni1lRs6xnu6gWLZ50r4KzSzK5Qdb7JuT+CwFfV0gsWs6g8wB7coUUasEFocW79dNbwKRaDnhfoDdhomLCiibVo7McxLiY5yxA9iqd3aajvqqYpEYzh7Z7mzTge2ziZrZvs3PzZL6+996HLN25/14+858PXvubHhjfvjPgG3m0xNW5dI6ORl4sqt/9S/0pfZJ0flpjGhDJO5IDQohqaRqcksJ8iMTzSGKVZSjs2CeIoaBUaoQxX7UyfNJYlsROKmjWCkDWaZKvM904YMa15oS1L2yHvNIK0VrdxYsRrbmtdvs1qO1NLaNJaUctlPK31fNbLXLjqYx+f+Fd3PfKH/2dq1jTz0GS8mMVnGKplEt8ndVz3UsQwFCJAmQ5zKIwhl0XG5rquezKDaeTiqBnCBNKs3gypDk6w2VRolak4t1xH1O9hjuZM41ln/pCEbZXXhsKBUEz/zNvWvO/nGyGbf/+/u+9f/PLev3sgKjT1gwXIXFr8fiscpSqm/kSc06hXnOMTakbtRcJ3lg5afGDzDd/39je844Prd/7sA/s33ffkur1zOw9117bDVjeOsoCGLTkdBFoGuVKaRld475uMaeIyifjiVqpn/PeGKM1akdG2pL10qImWZmJ3VoLGPV/VRr4AvRD3aEChlEZJGRY87rFhllw+OX/VNx7f+PCTW/ce3371zT/7hp/6zatvfaOTTScixiIW1lncgPqG6a9CkaZnVuPjyX1r4nzFYhloTMBjYfCgwIbfUGtEQzUV7nks7cwNaTOkXZTJ+oEjc80mGxvuCjOreE9K1mu3is64NvWc1SamWFq49etlmKRx3YIWP/lDo3/w3i0ffe/I//il5CPvbX7411b/4G1xwLShqS5Zh/EcOjZ2SSgP7Sv+9JPHN12/+j2/cdOv/Nalv/wrl1157SAfZlOuZ0AofAJF06n09GiXDedRMmt1KljGIVRzamB6eA0r0uLoMWnFuOki3GCnPVR02JWXDPf0tBEn46BI51g9kigClEojRbOCw7J0WTsMO3F44AfvVO9936qffue2J/cHf/DfunnRoOpCz+GLhsZAyWHwl4BzqpfhTkNnKppkhYHUNuPOJI0rbr7ze978vg273nXM/MDDEzfe89T6ffMbO2qdli0UmNw0eN5gRUKOMIwlaTXKRzwGwg329nPME7g0sLHHayFi3l+lVy8RLE0To7Wk3ienmEHvhBurhEFUY2Ejw5ttNjoxt+bRvet2773aBG+8bNcv3vGGf7PtujvCgSEDUSDdLcte0BQ9arCix8Q1eJq4sLiRh78kHFyCRzwTZeFCNY6GnBhXbNuSjA2Fd3+ps3ePy+1lqdr25FH+fz/9+NYN4eWjQZCN8PZI1mF/9fFDT35rtUpuO9G5+t6Honab3frSreDKmjVq1Wj4N3929OSxnR25ZYq30mjVffcenjkaCtNyFjY16ISPT5Njuh5K9fBkl7XGm8lgTeva/qfMnsenqboUOWs7jcS0auqpx1i3t7ZjV6fBQNuvjiBpvlMexlM33chO7u9+9b7JeTvS4Rva2ba7v2yiLrth63Cz6XIzw1w+mDDVrbFZvLHFDTXP2DDPo3z3XvfRP0UpMNKIVr3suitHojCf5UqEYO+iIe11WP945WIxDeUBLa9Ii0EKZD61Hdk4cGHIaJ5/QWt5mKA5tmXHa1/62ndff8evDW/6V48ffNm9f7/p8MntudhqVd2B8hB9uDxccTjRVOnlqGFLLXrJC6JavnYhM5cWKB/w8lAGNPoXihPvxkvxxtBpaXtMZXJ1xi89PH3Z1x5Z/9jBS0a2/tCuH/gXN3zvP9l89S2iNmbUkGENxxLq3Epj6QyVMthQFsFUpyWpYDtA1rBBHBewFGlZ4ppqwLs4CEwLxeCvZEW9zmu17t1f0n/1mYMPPnz4E5+b/IP/OZkx9vYfH75+C4tTlWab/uffHi7m9Vc/ffiLdz/58U8f+Nzd7e9/Hbvz1U3bO7xmZNT27Ce/2PmzP//GVx7Z/9VHZn/j30/e8zn9+lcnQ3U2ddz+r0+cuOzq5NZdw4mG1RzOd4rH9qWf/Oz0kf2Pfv7/7vv4Hx2cmTXrtrDbXzY0LuZkzz32cHHPA/roxJNf/MKxqNbdfMn4X398anUreOUu1Qj0Vdsv+cpXpz73t7PfePjIvV+f/m8f3Xv/1+fe9c+33vFynnYmTVfdfw9Tgb795asa+Ohd3c3EBz+R3nSzeNll8ti0+3e/k//Zx6Yn9h79k4/sfvJA8ZP/NLzuCshFFznzD7P3LLKWPtIS1lSfP0gde+BtEBDycUnuqfaKKrC8lympAxWkmC7IMK41x9ZvuP6Ky+9wfPTBh/buPXA0rNeaQ0NZQaNU4Ht2OgXCBjHLaP02mlZS0sx2XvjplfiPtHrhLJN7VlL5nVFGn2fMda1UMZcxfDbQmRqQudThaCa37DvWvOcbvcMnN+18xTuvf/VPjWzcGUXDstYyfrI1lEOIm6QB2vgiuEDZQNlCKpk6PyyUSMQlXyvvI04BfAzOA0vd4EQblTxUme5XnaO5/eX85dcO7toxnOdsplPLWLzjxuBdvzB06031upkUprf/SPrxr3fe+hPrb9kl9h4Mg3ryuh+O3vxj8cjwsSSxIc+3b2zt3BbB6zo+U8uL6Jbr+C/9tL7qkkzYrmypBx7NX3ULu2Kdld2u4FFrsHbNNhU7d3IiCVj4+tdH1+2UQ5F49Q3DUed4vZZs2yysVUeOJBvG1K23NIfq4VMP26s2JdfvqKmuiZS49Y5VcbM4fDzp6Gj1GvnOd6x5xU29pjrQjHjaDiaPsE2b+fUv4SKfY7o90yuemImv3a6uvdQ2huu7bqz3ToTTx5vr1sp3/aK45eVxQ85T/Y3POmRqqZa/ndJn8ym9FLyAaLwIvLyAADFHc7qSIWZJZiC3mlG/YkO1B4LngtOSBNQRKohGN2y88vrbBsaueuyAeeJQkakWi2lO03qtIVxSoJgPWVCDNNHgC7yAJiEk8YIfHrqFyZjK0mNpkoo0+NYfEVDtHXPGqCBT9V44NpmO7ZkcefTgyDzbueuV//KW175jcM12p+AAJ4gijdYuNISzjAxJP6ky2BKgMWnghQ13yw0fH7zyir6M+nkngHwbSgARcAm6f3ivBaYR4ooylVKFh5OnwVhu1/fy4UIELrEZmw7kiTBrD2imuLjvfvnjv1e8+6fH3/IqVvRGCgcmp4bvZTptoDj2QuBYaz6vuajFhA54O84OG+4CyXLX6NoaTSQtTdDpskywJNFc5yqyvGm7PA6NdbOM1vvvJmxO4GEu6sHvVXXh2lbMSCl7ndWJ60b8uDDSBXFHzNnamjldg6nA0u6Qk7E6SV1+IEpyMM2FCtuKdwQir/Ch4sNiUCrbKE76VpDVsr0u4EHKJnTzgJSdhl9aa5HAJZ5J44VOCv8wfF3p0nXGXDqUNIYmg9qhRhlq1ZWcpq3xNdAAdr5eiqxkC42FD+qHjTqts/bTjz9wcuKh9uQ3m+rY2sFsoJYriU8zL+Wc4L2yfUmCydReG+LzUSIhaNThqaAZRX0czhfEXC/BUhkWFaI5Z1sns+aB4yKX6wdGX7Llsles3rCD8wFDDTFw4uFBUP8qg2/Hy46qnqUwPrxFii9A40DpCN8Ge4InLjZvtyBsefG8E7DENEZYZyKUwJTFFFEFLjuWU4WXC1FmuYBr5TLdiySHF8U7VKg+umfwzn8zc9e7R9700vk6fbKQu4zVncmszGpcFDrqoGw2BUuobhO2GvKsVeg2D3ss46o20tFdWaQJNEGhaIKpxEAzgGOBbomMeurBc2t3sqTlXNu32MfJ/DwcOJovwDqjYloWhhfWZPCy6y7qpD3uGgO9ZJr17LAGJXCLSTlEi02HvQBsgcMnA9Oj5VoguQK2H4LRmlCR6Q6IgVpqj9mwTd1QyT65+GmMzUcBpMqpECeZBgGpdbVfE4WNjAVIUQbBx1chTvsl3xDOZenc8UOTe+87/NTnbbF7dKBYM6KSaE6pWWFPSJaFeCJ50KSN6UXkeULG8LW9tjhvUATDeqpltydlbf3BSbH3aJgM7dh46e2r1lzTGtmswgT0pe4mDmYFxdySDqZf5rmOY0gzLGcUTYghEoQYlp+j5Jc//Tb4O2RM+bNzx1J/bOSpQ1lExRXcIVpoggu/qo9gRR6INNCpnOoNRoO1rjPzrkdzQje7qWgNwy40NeXgbgb5nOpyN1W4bq7sPC86ZDHi0xlylmgp2TzLQRCUMZIFkeqeOEH9eOvclhXRZMOpmGoTXEenHR4xMejyvL6ZFkCUzZCbpOiGjYE4iHVgTdxIclhFuYUb1gErWnApTCx4kqdqliZ356kour7/vcYXxCeEJStNB4ZDAf6rZj1EsJNMFpZ6HNbgCR91c3tl3m4oJU6bCPX8C90XLEp6UjNNJmjaGpouL4SxAkJnNPKTOjgXkALJtZC0MF0OKkLwE5qTnxb+ESKsDa/bdMXNr7vtx96/7ZZfni5edv/9xb69tV53XIg1+ErdTlkOohRImez6l0G9LA2HARSkJzrxpN42Ya77q3vD3dMv2XXHr97++l+9bNc/Gl53hYoTOLPKapHniqQ7pKHpEN6scLqIIRtUeKFIBW9pHYOyZov+Q//RifC11X7zniqMVKrYow2SuiAi5wrSxgVRAxnS+8gH3vo9uzqD7ssNN0eN3dCh8CIFrFeEI6/9O5caxDf4xNR5zVJ3uQDnpMzxklJRIO2gX16wEJSi7uMyrRXh6AEZN8TMcHoYSpfsszxhA35dBg2iewmgPgah0UKJgktnOoMiKoycd10WtgaKbBb5Q/MhZIYmdUdeQcsrkbHE6Rj+Y2RnkL9FwmyKpyRMwdPqMgOdy+CS5UUWRhT9LooJWNsoiApLo7wHBqjk6GasRk2irC1cHGQojHMXJLXcZDAOeVYEoaLeteCwgrPMVN0Xj0IUqQ0SPzLfZwx9Vr9fPF08KI+/IyDHpI3Ztk/eI37oLX8Ujl8N+wa/xdvIpusHIU1x9s9cGuDtKGchk+WLITYo0vw1nHir01/2YRdR+JnhQkmja0kMISoUc3w8JvLZmX33P/zAJ45PPji+urNutakFcxHvKttVLKPSYCGBxG3aSrsbhzAHyCjqF5r+ErGJGsG8COMKLvkIwU4qeFK4Vm7q7Sw+2hs5MDMYNTdff9OdazZe72AQOlAAZjO0EIogKqrIHqYpBr3ZTM/AH2ugnGgWJIA+PM0KSF3WfAx9sD5wjlN6NWJdshcbngVhLaN7jiAat1kW2DA07qMfePvtN041+edaLJUwi0wMQjoFPUWZhUw6q1fh01FEyxP/h1Lif1xGGyiPSWNTceV4kNPEgDCIc8pl2gSFAfN9MGxeIPAXP/CPwGfDXVwuz+hR9EMf1j8B8F8N+Y5EIjH+FDuIjM9x+rk3eOgHfSCleBAN6ihRfi0ELL8J/R4koV/5gBSEdv65/hJd6cPfXWJQGR633VWfuDd8/ds+HI9flft8QulBU+N5OsNY9VRYlvc/J8qEl3t6MVllCxdK+f6O8UH8F4APBLm0sFHbxw49/MSTX5yZejDiE+MD2VDUbqm52M0GIDM5hPQVqGLYJQ4OF87hGrGur1ul15MEWT/YGNQzNNSOasMRjvp8KqsGZorhibmhY/MjKVvXWHXVpdtvXrtxG+ehs1LAaTIOisano/za/hApWkwMndLTyqOFVJL5eFr4M9G/sZhenC8+7hxBNO6yqcA2lOUf+52fuO3GqYb8QhPKLEfhCieSVj8nW4CCnvfbKpw/XDBvr/zkPdHrf/JD8eodBc32ApunoPKdCnWaXAv/zrd4f15BxSQtr0xDoKnMLPKTk/unjjy+f/dXbPrUSP34ptVZqzbt9JTkuRJMw560MqB2HhQZUA2GGVomxRdo4CvlBY1Joip0KpcdvGs+MtMbOnC8dqwzEgxuX3fZzavWbW8NrlWqLqQiKwH2hJ+Ash+nFzaIxgWbkLaOZH7sAz/+qhtO1uSXG5AI0Bg+LRJNa5ZRWbRQHFV4PgF7s20v/dQ9wT/6yd+Px64veEQqGGYklfo4pLrRlU5jpNLa1NlU8Bg+D2lUskBtmnZ607sfeeDPjh3+0vq1xaaNYcKOST2V0JKphc5oklhaXosCQ2EGjCb1oBKB5iqiWimXGm7D4Zl04OlD6uCx1uYrX7vtJa9tjl4SJa3CGapxI3PZdy/1OH2BlRcyiMYMZrWN4AT+8Qd/4vYb5mrySw2WUmU+fEgSm5ScARhucNz7v3oGIDDPcecMnGWwFxReWElzoqDJW92WT90j3/jWD0Vjuwxv4MUK1hJ5CmS+kvt24Y3qpQVEErJGtUW80NT7AMUSkikVbnQ4nz22/5v33/vp4xNPbVx1YsvY8Xo0HwedUPRCARVK7df9DwLSUuMW9ZwvjCnsai0ufWxfcuBEc2DNjtvufJOIGzwMLa3rryJVK/MM1C27i0MhlwdlpF7IKGlcULWTSf/4d9926w2dBNqYzynNhaFJIh28LWpyoiYNskieBc8Q4mecLuIsr18EwRaxxG/RQqcy6rptn/mK/cdv+13Q2DFYTl7SyJ+kQL5Ckrw3XFupcMwUtKStDMhBYBKKEnurdQ6WUm0KVKu1U0cOHXz883OHvxLxqaF6b3SwnQQnuJkMgww/onKAKlmbjjfbWTzdrp9sD0/NjQytv+2qG36gObZeg/C+eQyBhJHCRWACaXHyqr3/7HN2BdFYU3Jc56O/+/aX36hjfl9NzgQaeYBiECUSDe+GSR0ahO7/rMLzgkIEXT7Ys5d//u70TW/77XhsB41Eh70IUStrTOhv3zv2DFiZgJj5zUEpwxaGiqEpfOAqc0tz1EspAni8VCNc5N0TR48ceGJyz/3Z/DcHG0fHR2cazWOWdZErljXm55MjE2w221xfdcvIhms3XnJtPLhBc/jGwlGff2oLpcVmqLMSVUo7FBP4Ic1WxKGKwY4VQ2Nkja/W6/3R779n25a5scFD0pxUKMosaIzyiUZXoXzHlYrGzy80j3Mx3NOb/u6rMz/61l+rjV3huy17ddynMT5S2akflhSpmxUJ0oTU6khH3qGzp9pJTu2p8spLLtiWt6fnJh499PiXnt7zhbHRYtVoTcho7/729HR8xVV3bNnxvcnwhqBWh4a21O0KP1a0cAOkm6qZ4RL7PIO8e29kURXTq1YCiMa9HosDlrVn/uBDd3G2rxUfl7ZHHaL90t9lplLieKWOn284ASan+arjJ1pvfcd7V2/aThNFhlAbfYuamjF4lz4WTU2+YmlMickc+bgQQHCYZpLxiSJ4mQSoLq+gHmES1nMN5ofV1GrfmfjbT/35U3se5yK66ebXXHPT94pwBGqWul3QA2B2knbCA8HehUzzf/3VFUPcM0E0LpAhsE8EO3r4iTDoKNe2hRaOlpDqJ46mRHAwPvw0KxWeN1AHY5E62yzyoVUbriStIaGuUML2JZKUMtEYJ7UVTWOvNkuS0UAhX4FHyTqdZrgNMU19MChrP8CdUz0ssiXtapupekRDHVnunFY0QW6duRrRv3wwmdDOClr2An4IFH7gJ3RfKCZWEkoaO2udkjStnzYp9Vun3lfUv/1UK1PZv3qFFlYXC7jLaDFAEzGWMItvZxy+Gn0l6rdMdVv4QH0ar2htjASUNiCS7GWuJHD/kt8TfN9IMr+RVBjGMJKldPB2qVrAV1blhs876gyK6zVmY1oRstRE5Fhrx7XltLBaQYVAEDBa+WfF0thkVB3AC6Q+K4pQ0bAiT+CFDEMo5CFKuvLM52d5rzz49lPghRMMeNbrKy4YDlGcCliFhhxDqawTqb8aMkereyMMh29MH2qFCmQfoHF50Dd9+2celMjyyDgO2xsbSA/dCqFVNFEtEzRVGLfGZsamQsEiTwQ4jEeVPyRp90MzfLUZaXEWgcZE/MVnrygQjandmxnjepIKo9BQZT259z7rsKMhKRAc5IXvqfzCAzL+9M/8XDjLYC8onBlnGhZgLexDfAa4OHnRjiLfMYLHziVlh1Hf7RRHEMgVTOMzvxT0JQombBBUpJI0Kc1DAHFEWv10k5Tyco+008gneM2Q4KjvE5NDjBv+ERTccE6DdRCcJuijAZXQ0tRphuYnKB+1okA0JqtE4cMjjaLQnIw0n2Ckh9rg6XaOzAhorPZKloyVD/jBBRcFRNSxJMCnI13EaZoNOEERkdczufyUK1EcT6GkMfY0LwJoTMrFX0ASlV+5QkByaXGS8g6F9G6EYNrOCwnaQjnDipYOPCeqUuelMqDXUNR93j8FhzT3V/8Jp6rSVhI8jX3KFnKOCq1F+HulWYMgK1ouLgZA0fSP6HPQpym/micvCeKpL3RxfCskjhJSsq8Pn8pyWxDWxZtlqonZJbwqhhD3gy8GxF+6BtCewvizU5dWGDyNK1SosJJRGckVKqx4VDSuUGHFo6JxhQorHhWNK1RY8ahoXKHCikdF4woVVjwqGleosOJR0bhChRWPisYVKqx4VDSuUGHFo6JxhQorHhWNK1RY8ahoXKHCikdF4woVVjwqGleosOJR0bhChRWPisYVKqx4VDSuUGHFo6JxhQorHhWNK1RY8ahoXKHCikdF4woVVjwqGleosOJx1vNU0wTd/UNgcYJuPxU4TeePs3I++jMDrkSgaDurGcfLlC4WhP0VG56Bs3pShQrnhe+Gxotz9/slYmnxDILhTOOQM+EXv8POEa1XMEDM72ykICfKtQlK0vfXT1rIn1M4/bhCheXB2dPY+vWcIKgksURqvzg7bki/fAzHOa5yovGCOK9QwKpYLLGeE5RIv/4esbc893uCpy4d0sFCPlWosGw4Wxo7pi3L/IHyC7fR0oqQUkioX8zqNF1dqqcVDDBS9w+fG96n6K8v+czk+gJtERWNKyw3zn4NJ+1Y6skKoVS2XLvOCzD+++WufCi/X/mLtp0d8RZzjtbLJfX8jKz0mQV13Wd7hQrLhLM3qg1z5TKzICkUsDetYUJ7YS4XXvR3IbhyhdP4rDiMlNOSnSWows+RN9Fn9kL1nwcn+6VChWXE2dOYMQO2ehcQCob0L+0hycbvLYPzTJU+igWlEGN/+qOf63RJgi3i3H5+DsHAWdgkQFlpX9YM9G/Rero4s8RrgqKrFSosG/4hGhdFIYTgnFtrpZBUiQWelqY0STSx2gnSXXiEE9bRurJOuvAM2b84gBQhoYvpsswgucgSx3LNghintClFochWQX5QxlqTZTKuVzSusKx4dhobY8BecBh3Aa01F0FueCAhkFbJ1JrZvD3Xm5/tnpjudbu9dL7QbS5zsF4bhOmLLR79rAL8jOuLp891vcSFCia4k6RQ+6d0V0pprNEo16RstVrDw8NRa1g114ZRSwRx6mSRO6kCZBp5FJZJ6xQ91FvevNLGFZYXz6mNSwJDLnGMPfRs1zpn80SlJye/eWTfV48+/c185mjEdcRtpLSUqeCp5bmV9DP6FbS1J3T5gvKUDkpuLJ4+V7Dy+rcFA57l5+cUjA6+PRhT3EUwMxbvEuBCkEECk8NmWZb20nZRD0dv2HzFzes2bGuNXmJtw7BYiAA/gjaWCE8mN4o0MLmicYXlxXPSWEMDLyhknMJmhP04Pf303ic+f+zQl4Ji7/iAGW+yhBWBzSVLhSg4KyzXlgeOQZpXLsA579ueBi4lcgpGCvwL3IGnkfOhJyeSjh5k4aqhtTuvfsmrVX0TYw1jQ1A4KEscq70PUtG4wvLiOWkMx1gphbvlgRBpPv3I3V/8aJE+vmlNuy4PJ+xkQxUBzG96ArVAUW8IbBlkdkXXzfrWozNRwKvgDrrWKWI4t+BzqNX4bCfu6KHH9uo82Hbrnf9sePwaxgaMkxZ+sgDboZHxKHJFKlRYPjwnjaF5oIqhfKCWoyhqH9/90Kd+M8gfXb/ODLempDkUwHCEqU2VXhHjEX5QFHmhi6TWf8IKxrezzrf/QrkaQ1V7/gJtTIU9O9Lh2x7ZF+nkql0vf9PQumsdrxvS2UwIzpyW0MYVKiwniMawln2lzkIvBWpAchBEBcmFNBpz+NC9D335Q2P5fddui6Scs+lEGEOcSW/5APhtQB6gCql/l571Ny5egOQcqpncaAbPww1lerztBh+b6PKBa7ftevPo+ldpB9OaSaI+k2RX939aocJyoKRxmzuoU+/Q+lZQQy0pXFguCjczuf/rd//6UPR3Vw3PRgwUNZzTWIg+IK0EEu3yqKzbuehhBNOSqSKUeYvpxKq0F+tHj8ZHejte84b/zIP1XAZl/xAJZVzRuMJyggxD3zf4NEGDZ0gdtKhHQ17M7H7wzxP21NpVmeSzgmfidA4DJX/pJ3Ap/fbiwELxhSRnTM4JPhe6+c3jUuq9d3/+I5LPS2qgsrLqiFlh+UE05iykg5LRHtDHApY2T4/v/7uJ/X+1brRdV6nwnbQqlKCGJFAYeSJ7oDGT5Jgo27t55+qJpz914PEvcm7ChBe2oGKuQoXlhOcuecW+UbVUMuT3We6ydOaJB+7971s2TIzUD0dmmrPvPO7nxQNqHCYaOye1C7CnblsNmesTj7z0Kv7gV/5w+uiThe1qXvgBnhUqLCMWVTBZxlb0e0E4a1zevu8Lf1xXe7eu74j0eEieYIVTKLUxSj3YLUZSn2po5oCliT6xOpkcb0w+/fjni2xGkWdcocLyoqQx1Cw1o4DDRGMaDi+mDu05fvhrV2xRIjuRKEODFPvuYIUFULFHuaL7c6EYlhX1mIXp8Y2r0sNPftbpWWsqT6TCsoNo7FhmjDbapVlGWtlZp4sH7//S1vViIDwps4KX/l1F49NBZV6/6zWKQMob5JFhQgml08FktpUc/Ob9/y8A0w0Z1VqTS1K2w+OgQoUlRKmNC9+4xGEAcpZyZicP7ObtQ6ONttQn4oALw7iqbOpnAdUnYLPgMxV01HttzrJI8GJq09riwO4v5zMT5QAT4YeCAZw/Z5ebChXODV62qLmI6mGUhDjmJp8/9NT9jWhqoDYvXIcJ6axY4d2klwnEXRqWaJE5C8Wc5Dx3YZAPN7o1d/Dxhz7LWA7eLg4yKUNVqLCEKG3CAKLoOAxEwS3vzh2bPfbQ6OCs4icCaW3hGOhNlmElgqeByj5YKWQwU81gqV9xFuOalgHjxcz2zerJhz9VpLMle0kpL/C5QoUlhKcxiw1NQmP8JLVhZ+6IK/a26sddfoIrP/Y4LmfmqeTvTEAR+5FMnGWCZvWVLOBF5liT2aJQxmwYTW36+NFDTyEsCFzuKxpXWHIQjan3NBSxME475sKpfd+qJzOBOhpIDWUjFHSNcX7yjyVH6Vr2j55xiriUVUdnogzz7duz46wCnROQc9j8tJfCk9m5iOZCCUglQ02HIuTF4a0b1O7HHjRaW0t629O4LA99hJYjYhVefCAa03S1DiTm5AKz9uH99440sshkAW5qGltbaG14uqQdLTmjPhNkzMMGKKuHACuYKdtZafa+wPAAt2gjUaeW2nKzHL/imgtsBVeaIwUwbKn553RKkK4kVsXM+nmFzrx7vjjtUV4r49xY41SdpV2mJBcu5Xpm3YjrHn8o700hI6lZjxiMv8ah8IQCPxWlJYxZhRcdiMbw5Sx1NVJOul537/TU36+q2dgFPKeeDc5GUlA96wLXlgh+TBXR2LOPVBiUk6A2WEJJYxYt0tgzn35Cyo9cUZrt3XKFjdhO8234uyUdfFydU9CQDBtoTKWFv7WEwAMXNjxd8JxMlh5LQu8ei67iOmHtITkxe3wPolbQuCgEND61ZYJJcdO+PK1Q4ZzgSeNoTgu/6UMHH281bahyTtJGggUylLTo1+IsDUC6jDaaHUgwq1gRMk2jrKCi/FhdXE6ZyBAQ1CDxt4gAjHwtDDajtA0KHeQ6zFxYkN9JIzlKt5P6VYG6CXMgeWFll7o9k6Gx3Oi/ApHwG3khgdCxaM9OHfDOM+UmLb9BAVEG+dgCNJ6sonGFc0ep+5TgUgqphN29+xujqxKlcsZzEiyv9kjAllzGyieTYoU6htEL0zfmJhFgIFWZw8C2VhQwng20rnCOBiKUP/G/9g8AN4QrBJU4IC/8Tl8oOBjS9BAncqcy0N0qQ+1BSOsCcS4YpGBRkM3PHHZWIwvJiSaDQlofG/ImKEqlcq5Q4RxBNIYuAwUCiD3LDzz9rYEBYV2HaOxvlhIGziwxStGlV+M9BSlM2WGi66MDqzS2LISsF8plgcmwVywPmAZDFfG0v4H+oTXQy9QdErQHk8F2lEEdepo0JiBnG79CAMNheF9ocJHHUWqLE9xkNtc0XTD1EUFZQ7WHFB9qsS9NkAsfuwoXCbw2ltyQCDmdzxfpVKtuBG/TZJilroBRCxW41NqilFl6fCnLEG96h6F5SFjgpLTSQg0HlsFFxkYKVfsKMahd8thJO/sz2qDT+4oNTyMTm/QzARTxBitC4nHlSy8kYCzUwl7eO1qkswHNBoI4+uiWMfWRpuquisMVzgOexpAkT9TZ6YlQZUq0Bc8WiIY9KU1iyJKCKq7K1hq8Gy8hpUxOMIgJnmpptNKIWFiwMGdBzhQUNlVMS6GVMCE3obASv8CjPDPsArNLfU0R51DE+YArGs7QolOk/54HZHHQ684fzrKZEKlF8fIssfDRrVDhXNGnsaLe1Hb/07vXjjWFA437UuXrjSB3nnNLC7KJoZfwaMOEpykuUG8xHOsiYl0oUsTJ1Yu8ycJBJkNnnTWaBdoUKXcph7qG7qZ5pcFwUt6cR8zWWOG7RspW3hsL7PWsd5XQ63TB1fPRnVQwXUuMzmd0MW9MRrVaz+CsL4iqVRcrnA/6NAYDIE467cQSBmuxSFlPXm+YLqnCILeQGo0VPRLP9rZx4a3koL71qcebTzy5/vjRNVPH1+6f3Hzg5Pp9R8WslnnM2VCQactHAjKSC6dB5yTpzXOYqzZztpNRa1QSOGGKrBe1Vv3xx+7+0bfc97WvzSfxYK+3YGlfSHCkLJNw14vUz65Z8raEV81UNYCvgKunblSo8F2hVAIgBXxUl3fbtRCXqPPWaaRdUgafgYXH+oKCZDwb6OxZ/29/6fjP/MyB97zzxM/+syNv//lH3nHXY3/ymenZYGBWqrYriphZm+eIcJSIIGIdHkWRyaWMBK8rx3uMz5mIFfUilbMmgnMNm0LmtJpN/20XFiijdKBclnblmfWEVLfVB76CrGhc4ZxBNLa0KjdJWLc9X48COJmeuco68j29QvbaeCnFDDoopX5NeCa9IzDwXZ3gYSikyDS75sbxn33Ppb9015r33rXuvXeN3fmaRjOeqYXUzUzCD86hzbktNA9UoaHTDBnM1jKjoeELEaYB64bsRJG6WpJxNpsVVsDyPpNGFw5WStHrdZkAV302Uk0XJZvqBWCDUJpW+mqyFZ5PlNqY+kyBr0TjOOQ0EReuk4dJdO5L19JSgKrUfIUWDiWjBVMCgyjYXpYd04INrBdX3phtf8nMS3em126evmS0q9I0KozSnGeJFBuDcFs7Hc3sSKEGZGOIaAE6yxqPtqZsa9eNaXkJi6+aKeqZZPVVYerA7qh894UGihYle70e5XZZGtIGVeyNfFwBkynDK1Q4R5TSU9rQLu+lURB64xMCV/ZtXPJOmH2cKhW8pkcMqL8nZ4GCQmZkA6salJeZnx0aqMUslGls0q0f/j32/vfru+/b9KafeuKVbzx88w/t/8gX6g8da2oZQd8WuvXQg+r979vz/d87efsrnv7A70xYtgO+6XQnzV1uXP58KTzBVZbllMUUgTK55d4bPvhbocJ5gGgMzQhZwk6bnqAeU2AvLhgmCrpDgxWW2OLD00kdY08vxn9tZe4krOJU8qiXsX3Him99K3jysZE9+0Yf281PZkokNZ0nVq7/8sPFv/2dL2+5vPEjP9zYsT3+7Q/svf+pYDZPeDSyd6/+D//l7+9/xL7+9rG3vW5k4pHDH/3Pf5kZ+MlhPWzJnirV/4VEWUxKzg3N3bNYU+gJXJ4gRtjoYoUK5wgSM+FoLCJEyTFojEKIkIRMwAGF1QcPLqHJaZZa/jWXvn8JXgWBpvYiJhnXBZMR4vG1hyf+/W8/9Ou/eeiu35r4jx+Zfeqklg2T5bPWBTOG3flPRn/x58ff85baL/zT2toR/vG/3iOj9fl8+LW78wf2sB95y5afe+emd//U6l//ubXfd8MwnOK2lK7L4yws25kvJPA+lIRk0lga0r3onZd/KdcXtwoVzhULLpmXryAKc20gbF7MvOdGWBYR83VnXhnTu/waFURn6WjxUXbtrrXvfM8N//pXdv7rn7/mLT86tnmc2/lOYtygUts2sFtu3FiTecTNxuHa6sFkcrJIzSw87T1PFbzOdr1y2Kh9mj89ND5z/Q2OR0wlSgSa8e7zZL86a00QliMwAeQnsr3krs/bZcngCi8iEI37LTGcJfVWL4Mhfcof9oJWmn9LCjLS+8rYQ3AbsTxwaojVmsay9evUjutn1qx76PprD990TWcQBnFPh3FDWlMLmUtnTJpyHhoewYkfbMKvzgqbpYWu4TjKRVObWhGNBFOdk92UHZ9qZy5lreepMliwwugoient5UbZXm4LUXp+ephVuEhANF6AqzUG2qmFuVvKlCDHDQQGsalVZCmBp5IH7mW6FGaagaTp8oDP9aKABa6Ho/HVQrJ20U1hDIs4crn2a5MyHDZaYVZ04E6riLXnWSQTm3MVRPPTCDI+205Sm5xoR0lrc6DYcKspZVTMekf0wsK32PHc6aSeUOMSEktpxwblvNBWTF3aYftUTK5wjjhFY4hWXBvoZqCs7A/chYDRpDOQMNxcSoC2cMiF9S25pPuNcIUrMh4mTIqAsTATrjNYtMeLYr0I1mQsKuBXBiyFuw75V3q2mGY1beIc3rx0TGc6adQ3rne6yx6896CS25zdemAv+8znpsAVkaPMkDxcmFTgAoJq8rgsjAuTmq/g6l/1WOzygRxedGEqVPiuQTQmUfJKQ4aNVJdz4izQmHawfpdcj9FMAKcKEW4Ez2k8RpBb05acHXrs5Gf+97G//vP2X/zl9J/8xcx9DxXzjGeJ6YmiAGlNKkKrZZ6zOc6KumIht0rol98ysnaI/+lHnvjwBx/78O8d+eB/OsR0O3CsIUzeaz8f4xRBWBQ8YeGUDGLj6wNOA5JfGtWIWLlVqHAu8ESyVFtsLa8PjLVTKN/AkLgJsgFJtJZDvPBM7b1uX1TQyAAnUIAknVTvW7eW7X6w94f/9cQH/8vMB39/5vc+1P7r/2e6xhSynZkp+MaDUai7eS2SinVHajq2LDJTrJi5/KrGb7xv7abx/G/+cvLznz5+2y3Bz717VytiNZMPNfJ03ncau7CArVCYqLCRDOt+pHEfPiKwebzXUqHC+cGvYGBzGH6g1JF9D3z2L+6686UHh4r9kYUS1jBG4d2VynixseT8gXeRMoaq8kYnHmwUzTDHNFPxWLc7VKiNQtdCIdvFbNCcSd3TcTDDijBWl8/OTDfqVpoO1x3Y5j21hnHVYvvggLpgoIuSIAtrcpVz0rCs0XIz3UNhUpjp+cFxyWd1PwYXCjmrnyhWf/3gZS/7gd9urbocrgQNB6EpTUgzI9O9WwGPARf8wKwKFb57eG1MlCJ3dWR0Q1qEvQLKMQQN6Lqn7pmm4BKA3ocXlhYlya4U8MghxoqZYjKIjiThE5w/Wthv1qJvRWxPS7Yj5yKby+6BVXEa9mYj0QxtHDjTVCeT/CDL8HtYFCeVPdKMJxV7WrI9teBwOvtIQ04H+Xy9Jtm07zJ1oRGkaRglYypqQTNbKqsQiWfEgwZb0yeoUOGcQDSmxXkNecBxfThqjMx3ckbVTGV/zDLY0teinnK3ObxyJ1BU5ExGjCfMmHlTHEpqh6N4IoyPBWYm0IUoWICQriPsnApyN3/SZDkLJevMqYbiQd0JeME0SUhoUsXn4mBW2pmI65DxSOP5kmb6KYutCwjrgixLarU1KgSNUT6i6IJtT2Q+jbW+TaBChXOFF2sSImr0sCzcvOXKkzNdrxz8Roq6VB5LTACicVk2UE142bWYFkLXKYsTFivDbdeZjiyY7TFeMBUykdDoJmZy5goWdkTL+AGIrGinXfzLCqeYiAMhmJTa5IXLCxUrlsLFD6TgMlRLXhh9RzinCh01W+uEjGF+eLIivWAyJdiHwH9cXqy1rlDhuwaRE+Lj/HwfYNYV23fOzqWGlggEh31v6lLSSj4vGcDYuJy/kmSZXs64jLltZR2oZUVzyYOMXDKdqPqICOpZj8/PWiMjF0iKS51lCv4xc40hFgzFI0E0IC3c7HbBU8tz0F7KkLOuFuB2WnS6qWjkCyXHEsBnl8+Z07B4cfEWopTnUb01LlTQn2Deq+IzWpgoKJJU0bjCOcKT01LvDmgKKOTVq68x+ao8qzkZwA41wjOanNilbdikomNB1D1ASF0gEknsV3ggukH1Oio+8twWRahELRZcOGMNA/394nBQYUWaOpun7cxpJ4XgIS2GBh/bpoYFkpd1w4FMEp53lrgTi+/a0T/GkXOB5TSJmQ5opVnHAsQ0t8msGY9b6yWKKQrm/Jwnp83ej7/VFD4Vzg8kPzS0iGQSRGJBsG508KaZmQR6z8gix324yUTy0yi3BAAF4YGTelyQYCek5mZeyZymlYevbAolLJc9LjpSFMIYoY1wqQQh8LuUJY6FmiUiDUUnEUxoy8EbPA4x5d7N1rrPD06TWIPgvv1saUAcXoi6L5FQ6MSIbgrfJCA337qIsbCdJW25dWj8SqI1TGeUS2Tj0PRhtH4lMt0/ZLE0qFDhHOCFSGqqQS11FXebtr7yZDvJLXxWEeBSzpXoN/EuKc6kFF5EG7Gjf1wCJihtpPYQ10X9R6e+vcq771QGLW7PhL/67LfOE6dSgKhBvxa0Ug5UK/W5LGDg82j1kWNicNWWMKqDvoiApAlAyrh4P7l/WD6kQoVzRKlQrLU0qjgkcy+N1+6YKYZ6rGVdXbqIZwKeqs19wAoLoBLEO7mkiVnoaFLCTFgb0zRCpG2NkO1s5OBkvOWS7UEQkDVdocLygGisvWoQBmoN3qmpNcd4c+t0bzA3idBK6RAKGfq4wumArhUWqpXsfgMTmmre/cRaxq+3IeAbhHsnExtvW7Ph0kUO44D4XtZYV6iwRChpLCB25PzCUXU8bNaGNr7kyMnh3A0sqGvG4dhVOB2wkWlee9DYGan98lHezCbvlzkTdnVr71S0beerZdIs2et/5iu5KlRYUhBLOY+4ld5HkxBJHqnRjVdPdVYZsdqJyInUN+1WeAZKWpLrbkVOK1aUoJKQFTppZ2PHuq0rb/weS3PrclpalrKaUAasUGGp4GULe09iEkAVWq7H1m0dGLv6qQOmZxMLh1nRnLIVzgRV75dHNMUn5Z4/oYp9mduRfYfi6299XZS0hDxtRERF4wrLgJLG2CBcJF6+nlVZHu186R37J5N5u8pQlyjGa9FCJXEFD3KGoWepkhyZuNiU5TSzvDGXjebski3bbkCIPnc9+oEqVFhSEI2lb+KhQ+rp4QSrQ6cMja1fd+ntjx4I2qKlVZTnuFVJ4ZnwM/SV7V6+WR22jCxcNG/XHDzeXLPpFa2BdUvfTlehwreBaIz/EEfQt1x1TbpIsRgO802venNPXXnwxOpcjht3ai6BCgDVcCHHoGrJXCEbhpq8w8Z0Njwxs6ZtNm2+8mYmGwu5W6HCMoJoDE0CAlumDe05TXzlFGeJaqy67hU/tufwmiNT9bA+UNH4dIDGtDHJbcQ1eRxOuK6WKV/71KHG1mvvHBzbZI0ULKxoXGG5QTSmrstMW56SBQiyGsYMz1O4yXFj1fa1m954fGZ4tlN447Ffj0N/FrczL7x44OsKJLMxMy1nI8PFTI8fnFRrt7720h3fx0XAuRKOhiaW4StUWCZ4GpOYQdqgOjidw1Z0LAgU5zKpjV2+8/vDVd/3yKH1GRu3LGEi6qsXkB6Ex56UOdnkhWI0pBdY5PRFs/lk+oSTCsYGE0bQJGWFkx2tijwcnMrX7D2+bk5vv/6Vb6bxGY5DU1taKY5+WaHC8sHTjrpoSckiWXbWl4wrIrSkKi8xuHrDph0/mjZ+8OF99Zl8ZC5LMjiFCFZ2CCEyU4/r0lc0fjjURQwUcHA8sCcag9PCmlDPCnEkG3344MaueuUr7vwFFw5pck64s1oFFY0rLDv8XFzPAdwyxiiltNZZe/9X/ua3IvvopVt4KzoQsYm8bWJw2YXM1JmTTlgntJWpCHKqwL3I4PtmgcBAWWGPPUq/LFeZG9fRVfc/nA+sueWal72htWqbMYFzIghErlMJ0GI6F3XZVuH5xrPTGBeBsp3TWuubPIsiP/6lT//+wX2fedmuQKSPjzXzhuSibYROvIsIUS+M7PEwdb755aICTGk/f6gQtEoxjjPL2nk9SradmF39jUfV+KZXXffKH44HRpmSlhXwRwRD8ScCpSgTKxZXWE48pzYur4O+NPrJGEktokXaPXLg6a8+9o2/HIonh5LpgWh2IO6FMguEhnlJPzE8NBG3p/otXTRwlD4q2qjHtDFd2zim1z15QPFo+47r3rxp+ysMC2msBPWvzqyDewEnJWSWUy/MisYVlhPPSWOwF7fKnsAlMlq+PA1FL5078Nij93Yn9qRzE66YEbzHZY+plIkMMi7tAKcR8xcXfDbRbiG/NGtGA9eMrt+5ZfvNYbTaovhC0mmoMaiOjHKKKe5EntkoPjXVR4UKy4HvoI0B6B/svVuIa1rAYmTaFUXWzufnukWWs8JlZl7zWRvMM2m0jv0kXhcbynwAgiCIo1iK5lBzfZw0oW2dMppZQ90ulXUywF8a90RV/8gyAbO6onGF5cRz0viZQKhyqnYyEf3ibPS7oKzrBrkNtT7njJnA+48+6MUMsjgK/KF5vxxvW0o7Uh0z2NIgdB80/ony40WQIRWeR5wtjRGKZkoHIKKkdsBp46tvQWdFDag0+xTdDFk5zebFDpo7iPLPzzGU+kIOhI54udAGFXK4lfspQqJyOr0KFZYJZ01jWh/VK+A+kR1Ma84yfxkXIuYSEmvonReHJ+hr40+1CfcnC6OO6eU1KGHo59wTOK5oXGFZ8V3QGFJJs9R4XeNl1u9JTePA243UIxt/XxQi62nc8Ydlzbzv3VWC9DOUsy/3qF9cRA1yFSosG86exjCZQVPQGOGJrIL5eX/c4tS3sKxhW+Jm3Z9e5PA07iEfOLUqeSVcgqzoclEIbGVZBw5XvnGFZcRZV3FBNF1GRiM5v7LPZdqgcKB5SjfZn2P3ogD1VC2PfIo9b2mkJ82R74eRSOxxq6RyhQrLh7OnsWEu975fv3a6T2NSwqWL6D1DorF3kS9+lOklUDaQ+i1NFdC4nEegb0hXNK6w3Dh7Gpf6FujTt39IglvuS+eQe4F+MWDBGT7F0VMJ90f9G6fuV6iwPDh7GleoUOEFCcb+PxyRJ0V9MbqDAAAAAElFTkSuQmCC;" vertex="1" parent="1">
          <mxGeometry x="575" y="10" width="222" height="189.6" as="geometry" />
        </mxCell>
        <mxCell id="2gXIRFAYudDOXdTb_TRb-4" value="" style="edgeStyle=orthogonalEdgeStyle;rounded=0;orthogonalLoop=1;jettySize=auto;html=1;strokeColor=#FF3333;fontColor=#FF3333;" edge="1" parent="1" source="2gXIRFAYudDOXdTb_TRb-2" target="2gXIRFAYudDOXdTb_TRb-3">
          <mxGeometry relative="1" as="geometry" />
        </mxCell>
        <mxCell id="2gXIRFAYudDOXdTb_TRb-2" value="&lt;b&gt;START&lt;/b&gt;" style="rounded=1;whiteSpace=wrap;html=1;" vertex="1" parent="1">
          <mxGeometry x="80" y="60" width="120" height="60" as="geometry" />
        </mxCell>
        <mxCell id="2gXIRFAYudDOXdTb_TRb-6" value="" style="edgeStyle=orthogonalEdgeStyle;rounded=0;orthogonalLoop=1;jettySize=auto;html=1;strokeColor=#FF3333;fontColor=#FF3333;" edge="1" parent="1" source="2gXIRFAYudDOXdTb_TRb-3" target="2gXIRFAYudDOXdTb_TRb-5">
          <mxGeometry relative="1" as="geometry" />
        </mxCell>
        <mxCell id="2gXIRFAYudDOXdTb_TRb-3" value="&lt;b&gt;INPUT: &lt;/b&gt;&lt;i&gt;arr, x&lt;/i&gt;&lt;br&gt;&lt;b&gt;&lt;/b&gt;" style="shape=parallelogram;perimeter=parallelogramPerimeter;whiteSpace=wrap;html=1;fixedSize=1;fontStyle=1" vertex="1" parent="1">
          <mxGeometry x="65" y="160" width="150" height="60" as="geometry" />
        </mxCell>
        <mxCell id="2gXIRFAYudDOXdTb_TRb-8" value="" style="edgeStyle=orthogonalEdgeStyle;rounded=0;orthogonalLoop=1;jettySize=auto;html=1;strokeColor=#FF3333;fontColor=#000000;" edge="1" parent="1" source="2gXIRFAYudDOXdTb_TRb-5" target="2gXIRFAYudDOXdTb_TRb-7">
          <mxGeometry relative="1" as="geometry" />
        </mxCell>
        <mxCell id="2gXIRFAYudDOXdTb_TRb-5" value="&lt;div&gt;n = arr.length&lt;/div&gt;&lt;div&gt;i = 0&lt;/div&gt;&lt;div&gt;j = 0&lt;br&gt;&lt;/div&gt;" style="whiteSpace=wrap;html=1;fontStyle=1;" vertex="1" parent="1">
          <mxGeometry x="80" y="250" width="120" height="50" as="geometry" />
        </mxCell>
        <mxCell id="2gXIRFAYudDOXdTb_TRb-10" value="" style="edgeStyle=orthogonalEdgeStyle;rounded=0;orthogonalLoop=1;jettySize=auto;html=1;strokeColor=#FF3333;fontColor=#000000;" edge="1" parent="1" source="2gXIRFAYudDOXdTb_TRb-7" target="2gXIRFAYudDOXdTb_TRb-9">
          <mxGeometry relative="1" as="geometry" />
        </mxCell>
        <mxCell id="2gXIRFAYudDOXdTb_TRb-33" style="edgeStyle=orthogonalEdgeStyle;rounded=0;orthogonalLoop=1;jettySize=auto;html=1;fontColor=#000000;" edge="1" parent="1" source="2gXIRFAYudDOXdTb_TRb-7" target="2gXIRFAYudDOXdTb_TRb-32">
          <mxGeometry relative="1" as="geometry">
            <Array as="points">
              <mxPoint x="310" y="340" />
              <mxPoint x="210" y="340" />
              <mxPoint x="210" y="590" />
            </Array>
          </mxGeometry>
        </mxCell>
        <mxCell id="2gXIRFAYudDOXdTb_TRb-7" value="FOR (i&amp;lt;n-1)" style="rhombus;whiteSpace=wrap;html=1;fontStyle=1;" vertex="1" parent="1">
          <mxGeometry x="270" y="235" width="80" height="80" as="geometry" />
        </mxCell>
        <mxCell id="2gXIRFAYudDOXdTb_TRb-16" value="" style="edgeStyle=orthogonalEdgeStyle;rounded=0;orthogonalLoop=1;jettySize=auto;html=1;fontColor=#000000;" edge="1" parent="1" source="2gXIRFAYudDOXdTb_TRb-9" target="2gXIRFAYudDOXdTb_TRb-15">
          <mxGeometry relative="1" as="geometry" />
        </mxCell>
        <mxCell id="2gXIRFAYudDOXdTb_TRb-9" value="FOR (j&amp;lt;n-i-1)" style="rhombus;whiteSpace=wrap;html=1;fontStyle=1;" vertex="1" parent="1">
          <mxGeometry x="390" y="235" width="80" height="80" as="geometry" />
        </mxCell>
        <mxCell id="2gXIRFAYudDOXdTb_TRb-11" value="Yes" style="text;html=1;align=center;verticalAlign=middle;resizable=0;points=[];autosize=1;fontColor=#000000;" vertex="1" parent="1">
          <mxGeometry x="350" y="250" width="40" height="20" as="geometry" />
        </mxCell>
        <mxCell id="2gXIRFAYudDOXdTb_TRb-14" value="Yes" style="text;html=1;align=center;verticalAlign=middle;resizable=0;points=[];autosize=1;fontColor=#000000;" vertex="1" parent="1">
          <mxGeometry x="470" y="250" width="40" height="20" as="geometry" />
        </mxCell>
        <mxCell id="2gXIRFAYudDOXdTb_TRb-18" value="" style="edgeStyle=orthogonalEdgeStyle;rounded=0;orthogonalLoop=1;jettySize=auto;html=1;fontColor=#000000;" edge="1" parent="1" source="2gXIRFAYudDOXdTb_TRb-15" target="2gXIRFAYudDOXdTb_TRb-17">
          <mxGeometry relative="1" as="geometry" />
        </mxCell>
        <mxCell id="2gXIRFAYudDOXdTb_TRb-21" value="" style="edgeStyle=orthogonalEdgeStyle;rounded=0;orthogonalLoop=1;jettySize=auto;html=1;strokeColor=#FF3333;fontColor=#000000;" edge="1" parent="1" source="2gXIRFAYudDOXdTb_TRb-15" target="2gXIRFAYudDOXdTb_TRb-20">
          <mxGeometry relative="1" as="geometry" />
        </mxCell>
        <mxCell id="2gXIRFAYudDOXdTb_TRb-15" value="if arr[j] &amp;gt; arr[j+1]" style="rhombus;whiteSpace=wrap;html=1;fontStyle=1;" vertex="1" parent="1">
          <mxGeometry x="520" y="235" width="80" height="80" as="geometry" />
        </mxCell>
        <mxCell id="2gXIRFAYudDOXdTb_TRb-17" value="&lt;code class=&quot;undefined spaces&quot;&gt;&amp;nbsp;&lt;/code&gt;&lt;code class=&quot;plain&quot;&gt;swap(arr,j,j+1)&lt;/code&gt;" style="whiteSpace=wrap;html=1;fontStyle=1;" vertex="1" parent="1">
          <mxGeometry x="660" y="245" width="120" height="60" as="geometry" />
        </mxCell>
        <mxCell id="2gXIRFAYudDOXdTb_TRb-19" value="Yes" style="text;html=1;align=center;verticalAlign=middle;resizable=0;points=[];autosize=1;fontColor=#000000;" vertex="1" parent="1">
          <mxGeometry x="600" y="250" width="40" height="20" as="geometry" />
        </mxCell>
        <mxCell id="2gXIRFAYudDOXdTb_TRb-23" style="edgeStyle=orthogonalEdgeStyle;rounded=0;orthogonalLoop=1;jettySize=auto;html=1;exitX=0;exitY=0.5;exitDx=0;exitDy=0;strokeColor=#FF3333;fontColor=#000000;" edge="1" parent="1" source="2gXIRFAYudDOXdTb_TRb-20" target="2gXIRFAYudDOXdTb_TRb-9">
          <mxGeometry relative="1" as="geometry">
            <Array as="points">
              <mxPoint x="470" y="470" />
            </Array>
          </mxGeometry>
        </mxCell>
        <mxCell id="2gXIRFAYudDOXdTb_TRb-20" value="j++" style="whiteSpace=wrap;html=1;fontStyle=1;" vertex="1" parent="1">
          <mxGeometry x="570" y="440" width="120" height="60" as="geometry" />
        </mxCell>
        <mxCell id="2gXIRFAYudDOXdTb_TRb-22" value="No" style="text;html=1;align=center;verticalAlign=middle;resizable=0;points=[];autosize=1;fontColor=#000000;" vertex="1" parent="1">
          <mxGeometry x="575" y="350" width="30" height="20" as="geometry" />
        </mxCell>
        <mxCell id="2gXIRFAYudDOXdTb_TRb-31" value="" style="edgeStyle=orthogonalEdgeStyle;rounded=0;orthogonalLoop=1;jettySize=auto;html=1;strokeColor=#009900;fontColor=#000000;" edge="1" parent="1" source="2gXIRFAYudDOXdTb_TRb-25" target="2gXIRFAYudDOXdTb_TRb-7">
          <mxGeometry relative="1" as="geometry">
            <Array as="points">
              <mxPoint x="340" y="403" />
              <mxPoint x="350" y="403" />
            </Array>
          </mxGeometry>
        </mxCell>
        <mxCell id="2gXIRFAYudDOXdTb_TRb-25" value="i++" style="whiteSpace=wrap;html=1;fontStyle=1;" vertex="1" parent="1">
          <mxGeometry x="294" y="440" width="120" height="60" as="geometry" />
        </mxCell>
        <mxCell id="2gXIRFAYudDOXdTb_TRb-30" style="edgeStyle=orthogonalEdgeStyle;rounded=0;orthogonalLoop=1;jettySize=auto;html=1;entryX=1;entryY=0.65;entryDx=0;entryDy=0;entryPerimeter=0;strokeColor=#009900;fontColor=#000000;exitX=0.6;exitY=1.2;exitDx=0;exitDy=0;exitPerimeter=0;" edge="1" parent="1" source="2gXIRFAYudDOXdTb_TRb-27" target="2gXIRFAYudDOXdTb_TRb-25">
          <mxGeometry relative="1" as="geometry">
            <mxPoint x="390" y="400" as="sourcePoint" />
            <Array as="points">
              <mxPoint x="425" y="384" />
              <mxPoint x="425" y="479" />
            </Array>
          </mxGeometry>
        </mxCell>
        <mxCell id="2gXIRFAYudDOXdTb_TRb-27" value="No" style="text;html=1;align=center;verticalAlign=middle;resizable=0;points=[];autosize=1;fontColor=#000000;" vertex="1" parent="1">
          <mxGeometry x="410" y="360" width="30" height="20" as="geometry" />
        </mxCell>
        <mxCell id="2gXIRFAYudDOXdTb_TRb-29" value="" style="edgeStyle=orthogonalEdgeStyle;rounded=0;orthogonalLoop=1;jettySize=auto;html=1;fontColor=#000000;strokeColor=#009900;" edge="1" parent="1" source="2gXIRFAYudDOXdTb_TRb-9" target="2gXIRFAYudDOXdTb_TRb-27">
          <mxGeometry relative="1" as="geometry">
            <mxPoint x="430" y="315" as="sourcePoint" />
            <mxPoint x="340" y="440" as="targetPoint" />
          </mxGeometry>
        </mxCell>
        <mxCell id="2gXIRFAYudDOXdTb_TRb-32" value="&lt;b&gt;STOP&lt;/b&gt;" style="rounded=1;whiteSpace=wrap;html=1;" vertex="1" parent="1">
          <mxGeometry x="80" y="560" width="120" height="60" as="geometry" />
        </mxCell>
        <mxCell id="2gXIRFAYudDOXdTb_TRb-34" value="No" style="text;html=1;align=center;verticalAlign=middle;resizable=0;points=[];autosize=1;fontColor=#000000;" vertex="1" parent="1">
          <mxGeometry x="170" y="440" width="30" height="20" as="geometry" />
        </mxCell>
        <mxCell id="2gXIRFAYudDOXdTb_TRb-35" style="edgeStyle=orthogonalEdgeStyle;rounded=0;orthogonalLoop=1;jettySize=auto;html=1;exitX=1;exitY=0.75;exitDx=0;exitDy=0;entryX=1;entryY=0.5;entryDx=0;entryDy=0;strokeColor=#009900;fontColor=#000000;" edge="1" parent="1" source="2gXIRFAYudDOXdTb_TRb-25" target="2gXIRFAYudDOXdTb_TRb-25">
          <mxGeometry relative="1" as="geometry" />
        </mxCell>
        <mxCell id="2gXIRFAYudDOXdTb_TRb-36" value="" style="edgeStyle=orthogonalEdgeStyle;rounded=0;orthogonalLoop=1;jettySize=auto;html=1;fontColor=#000000;" edge="1" parent="1">
          <mxGeometry relative="1" as="geometry">
            <mxPoint x="350" y="274.5" as="sourcePoint" />
            <mxPoint x="390" y="274.5" as="targetPoint" />
          </mxGeometry>
        </mxCell>
        <mxCell id="2gXIRFAYudDOXdTb_TRb-37" value="" style="edgeStyle=orthogonalEdgeStyle;rounded=0;orthogonalLoop=1;jettySize=auto;html=1;fontColor=#000000;" edge="1" parent="1">
          <mxGeometry relative="1" as="geometry">
            <mxPoint x="200" y="274.5" as="sourcePoint" />
            <mxPoint x="270" y="274.5" as="targetPoint" />
          </mxGeometry>
        </mxCell>
      </root>
    </mxGraphModel>
  </diagram>
</mxfile>
